<?xml version="1.0" encoding="UTF-8" standalone="no" ?>
<!DOCTYPE svg PUBLIC "-//W3C//DTD SVG 1.1//EN" "http://www.w3.org/Graphics/SVG/1.1/DTD/svg11.dtd">
<svg xmlns="http://www.w3.org/2000/svg" xmlns:xlink="http://www.w3.org/1999/xlink" version="1.1" width="1080" height="1080" viewBox="0 0 1080 1080" xml:space="preserve">
<desc>Created with Fabric.js 5.2.4</desc>
<defs>
</defs>
<rect x="0" y="0" width="100%" height="100%" fill="transparent"></rect>
<g transform="matrix(1 0 0 1 540 540)" id="0ecf5245-8367-4e27-83fe-90bdcf08a195"  >
<rect style="stroke: none; stroke-width: 1; stroke-dasharray: none; stroke-linecap: butt; stroke-dashoffset: 0; stroke-linejoin: miter; stroke-miterlimit: 4; fill: rgb(255,255,255); fill-rule: nonzero; opacity: 1;" vector-effect="non-scaling-stroke"  x="-540" y="-540" rx="0" ry="0" width="1080" height="1080" />
</g>
<g transform="matrix(1 0 0 1 540 540)" id="6b82f48a-b133-4e53-9399-12a5acafbcf3"  >
</g>
<g transform="matrix(1.56 0 0 1.56 540 540)"  >
<g style="" vector-effect="non-scaling-stroke"   >
		<g transform="matrix(1 0 0 1 -201.7 -0.4)" id="XMLID_496_"  >
<path style="stroke: none; stroke-width: 1; stroke-dasharray: none; stroke-linecap: butt; stroke-dashoffset: 0; stroke-linejoin: miter; stroke-miterlimit: 4; fill: rgb(1,115,207); fill-rule: nonzero; opacity: 1;" vector-effect="non-scaling-stroke"  transform=" translate(-119, -321.6)" d="M 87.4 381.7 L 76.9 428.8 C 76.9 430.2 75.5 430.90000000000003 74.10000000000001 430.90000000000003 L 23.5 430.90000000000003 C 22.8 430.90000000000003 21.4 430.20000000000005 21.4 429.50000000000006 C 20.7 428.80000000000007 20.7 428.1000000000001 20.7 427.40000000000003 L 87.4 225 C 87.4 225 88.80000000000001 221.5 93 220.1 C 107.8 217.29999999999998 130.9 213.79999999999998 147.1 211 C 150.6 210.3 152 213.8 152 213.8 L 217.3 428.8 C 217.3 429.5 217.3 430.2 216.60000000000002 430.90000000000003 C 215.90000000000003 431.6000000000001 215.20000000000002 431.6 214.50000000000003 431.6 L 185.00000000000003 431.6 C 177.30000000000004 431.6 161.80000000000004 432.3 156.20000000000002 432.3 C 154.8 432.3 153.4 431.6 153.4 430.2 L 142.9 382.4 L 87.4 381.7 z M 134.5 340.3 C 130.3 323.40000000000003 124 293.2 117.6 267.20000000000005 C 113.39999999999999 285.50000000000006 103.5 322.70000000000005 98.6 340.30000000000007 L 134.5 340.30000000000007 z" stroke-linecap="round" />
</g>
		<g transform="matrix(1 0 0 1 -20.09 -1.4)" id="XMLID_492_"  >
<path style="stroke: none; stroke-width: 1; stroke-dasharray: none; stroke-linecap: butt; stroke-dashoffset: 0; stroke-linejoin: miter; stroke-miterlimit: 4; fill: rgb(1,115,207); fill-rule: nonzero; opacity: 1;" vector-effect="non-scaling-stroke"  transform=" translate(-300.61, -320.6)" d="M 284.2 290.4 C 320 265.79999999999995 350.2 271.4 365 286.2 C 382.6 304.5 372.7 328.4 378.3 428.79999999999995 C 378.3 429.49999999999994 378.3 430.19999999999993 377.6 430.9 C 376.90000000000003 431.6 376.20000000000005 431.59999999999997 375.5 431.59999999999997 C 369.9 431.59999999999997 359.3 430.9 354.4 430.9 C 346 430.9 328.4 431.59999999999997 321.4 431.59999999999997 C 320.7 431.59999999999997 320 431.59999999999997 319.29999999999995 430.9 C 318.59999999999997 430.2 318.59999999999997 429.5 318.59999999999997 428.79999999999995 C 319.29999999999995 330.4 319.99999999999994 317.09999999999997 302.4 317.09999999999997 C 296.09999999999997 317.09999999999997 291.2 319.9 285.5 321.99999999999994 C 285.5 372.59999999999997 286.2 387.29999999999995 288.3 428.0999999999999 C 288.3 428.7999999999999 288.3 429.4999999999999 287.6 429.4999999999999 C 286.90000000000003 430.1999999999999 286.20000000000005 430.1999999999999 286.20000000000005 430.1999999999999 L 230.00000000000006 430.89999999999986 C 229.30000000000007 430.89999999999986 228.60000000000005 430.89999999999986 228.60000000000005 430.1999999999999 C 227.90000000000006 429.4999999999999 227.90000000000006 428.7999999999999 227.90000000000006 428.7999999999999 C 229.30000000000007 281.9999999999999 227.90000000000006 251.7999999999999 223.70000000000007 220.7999999999999 C 221.60000000000008 219.3999999999999 224.40000000000006 219.3999999999999 224.40000000000006 219.3999999999999 C 249.70000000000007 215.8999999999999 251.80000000000007 215.1999999999999 280.6000000000001 209.59999999999988 C 280.6000000000001 209.59999999999988 283.4000000000001 209.59999999999988 283.4000000000001 213.09999999999988 C 284.2 234.9 284.2 290.4 284.2 290.4 z" stroke-linecap="round" />
</g>
		<g transform="matrix(1 0 0 1 139.7 32.31)" id="XMLID_487_"  >
<path style="stroke: none; stroke-width: 1; stroke-dasharray: none; stroke-linecap: butt; stroke-dashoffset: 0; stroke-linejoin: miter; stroke-miterlimit: 4; fill: rgb(1,115,207); fill-rule: nonzero; opacity: 1;" vector-effect="non-scaling-stroke"  transform=" translate(-460.4, -354.31)" d="M 476.7 416.1 C 466.2 423.8 445.8 434.40000000000003 428.9 434.40000000000003 C 402.9 434.40000000000003 386.7 415.40000000000003 386.7 387.3 C 386.7 343.7 438 331.1 474.5 326.2 C 475.2 319.2 475.2 311.4 456.9 311.4 C 438.59999999999997 311.4 423.2 317 407 323.29999999999995 C 406.3 323.99999999999994 404.9 323.29999999999995 404.2 323.29999999999995 C 403.5 322.59999999999997 402.8 321.9 402.8 320.49999999999994 L 404.2 286.79999999999995 C 404.2 285.4 404.9 284.69999999999993 406.3 283.99999999999994 C 439.3 274.19999999999993 495.5 266.3999999999999 518.7 288.19999999999993 C 533.5 301.49999999999994 532.8000000000001 318.3999999999999 532 346.49999999999994 C 531.3 387.19999999999993 532 398.49999999999994 534.1 428.69999999999993 C 534.1 429.3999999999999 534.1 430.0999999999999 533.4 430.79999999999995 C 532.6999999999999 431.5 532 431.49999999999994 531.3 431.49999999999994 L 479.29999999999995 432.19999999999993 C 478.59999999999997 432.19999999999993 477.9 432.19999999999993 477.19999999999993 431.49999999999994 C 476.49999999999994 430.79999999999995 476.49999999999994 430.09999999999997 476.49999999999994 429.3999999999999 L 476.49999999999994 416.1 z M 475.3 357.8 C 462 359.2 441.6 360.6 441.6 378.2 C 441.6 393.7 458.5 398.59999999999997 475.3 388 L 475.3 357.8 z" stroke-linecap="round" />
</g>
		<g transform="matrix(1 0 0 1 268.75 -37.6)" id="XMLID_486_"  >
<path style="stroke: none; stroke-width: 1; stroke-dasharray: none; stroke-linecap: butt; stroke-dashoffset: 0; stroke-linejoin: miter; stroke-miterlimit: 4; fill: rgb(1,115,207); fill-rule: nonzero; opacity: 1;" vector-effect="non-scaling-stroke"  transform=" translate(-513.45, -284.4)" d="M 493.4 358.5 C 492 358.5 490.59999999999997 357.1 490.59999999999997 355.7 C 487.09999999999997 279.1 486.4 270.7 482.2 222.89999999999998 C 482.2 221.49999999999997 482.9 220.09999999999997 485 219.39999999999998 L 541.2 210.29999999999998 C 541.9000000000001 210.29999999999998 543.3000000000001 210.29999999999998 544 210.99999999999997 C 544.6999999999999 211.69999999999996 544.7 212.39999999999998 544.7 213.79999999999998 C 541.2 248.2 537.7 313.59999999999997 537 355 C 537 356.4 535.6 357.8 534.2 357.8 L 493.4 358.5 z" stroke-linecap="round" />
</g>
		<g transform="matrix(1 0 0 1 266.9 82.3)" id="Combined-Shape"  >
<path style="stroke: none; stroke-width: 1; stroke-dasharray: none; stroke-linecap: butt; stroke-dashoffset: 0; stroke-linejoin: miter; stroke-miterlimit: 4; fill: rgb(1,115,207); fill-rule: nonzero; opacity: 1;" vector-effect="non-scaling-stroke"  transform=" translate(-511.6, -404.3)" d="M 483.6 423.8 C 483.6 423.6 483.6 423.3 483.6 423.1 C 483.6 413.6 483.8 403.8 483.90000000000003 395.3 C 483.90000000000003 391.7 483.8 388.6 483.6 385.90000000000003 C 483.6 385.40000000000003 483.6 384.90000000000003 483.8 384.50000000000006 C 483.8 382.80000000000007 483.7 381.1000000000001 483.6 379.70000000000005 C 483.6 379.00000000000006 483.6 378.30000000000007 484.3 377.6 C 485 376.90000000000003 485.7 376.90000000000003 486.40000000000003 376.90000000000003 C 500.6 378.3 525.5 377.6 536.9000000000001 376.20000000000005 C 537.6000000000001 376.20000000000005 538.3000000000001 376.20000000000005 539.0000000000001 376.90000000000003 C 539.7000000000002 377.6 539.7000000000002 378.3 539.7000000000002 379.00000000000006 C 539.7000000000002 380.90000000000003 539.7000000000002 382.70000000000005 539.7000000000002 384.6000000000001 C 539.7000000000002 384.80000000000007 539.7000000000002 385.1000000000001 539.7000000000002 385.30000000000007 L 539.7000000000002 428.9000000000001 C 539.7000000000002 429.6000000000001 539.7000000000002 430.30000000000007 539.0000000000001 431.0000000000001 C 538.3000000000001 431.70000000000016 537.6000000000001 431.7000000000001 536.9000000000001 431.7000000000001 C 516.5000000000001 431.0000000000001 503.9000000000001 431.0000000000001 486.30000000000007 432.4000000000001 C 485.6000000000001 432.4000000000001 484.9000000000001 432.4000000000001 484.20000000000005 431.7000000000001 C 483.5 431.0000000000001 483.50000000000006 430.3000000000001 483.50000000000006 429.6000000000001 C 483.6 427.6 483.6 425.7 483.6 423.8 z" stroke-linecap="round" />
</g>
</g>
</g>
</svg>