<?xml version="1.0" encoding="UTF-8" standalone="no" ?>
<!DOCTYPE svg PUBLIC "-//W3C//DTD SVG 1.1//EN" "http://www.w3.org/Graphics/SVG/1.1/DTD/svg11.dtd">
<svg xmlns="http://www.w3.org/2000/svg" xmlns:xlink="http://www.w3.org/1999/xlink" version="1.1" width="1080" height="1080" viewBox="0 0 1080 1080" xml:space="preserve">
<desc>Created with Fabric.js 5.2.4</desc>
<defs>
</defs>
<g transform="matrix(1 0 0 1 540 540)" id="0ecf5245-8367-4e27-83fe-90bdcf08a195"  >
<rect style="stroke: none; stroke-width: 1; stroke-dasharray: none; stroke-linecap: butt; stroke-dashoffset: 0; stroke-linejoin: miter; stroke-miterlimit: 4; fill: rgb(255,255,255); fill-rule: nonzero; opacity: 1;" vector-effect="non-scaling-stroke"  x="-540" y="-540" rx="0" ry="0" width="1080" height="1080" />
</g>
<g transform="matrix(1 0 0 1 540 540)" id="6b82f48a-b133-4e53-9399-12a5acafbcf3"  >
</g>
<g transform="matrix(1.91 0 0 1.91 540 540)" id="7368d4b0-6c72-4590-95f8-498a88363d14"  >
<path style="stroke: rgb(0,0,0); stroke-width: 0; stroke-dasharray: none; stroke-linecap: butt; stroke-dashoffset: 0; stroke-linejoin: miter; stroke-miterlimit: 4; fill: rgb(17,17,15); fill-rule: nonzero; opacity: 1;" vector-effect="non-scaling-stroke"  transform=" translate(-256, -69.38)" d="M 98.6961598 59.3124474 L 55.6354962 59.3124474 C 54.5247282 59.3124474 53.623096 60.2151464 53.623096 61.3259144 L 53.623096 82.3792882 C 53.623096 83.4900562 54.5247282 84.3938224 55.6354962 84.3938224 L 72.4335936 84.3938224 L 72.4335936 110.550753 C 72.4335936 110.550753 68.6616775 111.836513 58.2336902 111.836513 C 45.930948 111.836513 28.744455 107.341157 28.744455 69.5494382 C 28.744455 31.7491835 46.6405165 26.7758029 63.4418154 26.7758029 C 77.9852995 26.7758029 84.2508415 29.336651 88.2372288 30.5701264 C 89.4899103 30.9542537 90.648694 29.706907 90.648694 28.5950722 L 95.4524188 8.25340062 C 95.4524188 7.73376182 95.2763603 7.10742103 94.6830971 6.68167999 C 93.0644278 5.52716422 83.1870225 -1.42108547e-14 58.2336902 -1.42108547e-14 C 29.487101 -1.42108547e-14 0 12.2301846 0 71.022993 C 0 129.817935 33.7605165 138.579238 62.2094068 138.579238 C 85.7649432 138.579238 100.054476 128.51297 100.054476 128.51297 C 100.643471 128.187529 100.707493 127.364856 100.707493 126.987131 L 100.707493 61.3259144 C 100.707493 60.2151464 99.8069278 59.3124474 98.6961598 59.3124474 Z M 320.495497 7.35923776 C 320.495497 6.23886664 319.607737 5.33510059 318.496969 5.33510059 L 294.251072 5.33510059 C 293.143503 5.33510059 292.24294 6.23886664 292.24294 7.35923776 C 292.24294 7.36457288 292.24934 54.215292 292.24934 54.215292 L 254.456556 54.215292 L 254.456556 7.35923776 C 254.456556 6.23886664 253.564526 5.33510059 252.455893 5.33510059 L 228.211061 5.33510059 C 227.107764 5.33510059 226.208265 6.23886664 226.208265 7.35923776 L 226.208265 134.231131 C 226.208265 135.350435 227.107764 136.26167 228.211061 136.26167 L 252.455893 136.26167 C 253.564526 136.26167 254.456556 135.350435 254.456556 134.231131 L 254.456556 79.9635547 L 292.24934 79.9635547 C 292.24934 79.9635547 292.183187 134.226863 292.183187 134.231131 C 292.183187 135.350435 293.082684 136.26167 294.191317 136.26167 L 318.494835 136.26167 C 319.605604 136.26167 320.493364 135.350435 320.495497 134.231131 L 320.495497 7.35923776 Z M 144.371023 24.3216565 C 144.371023 15.591298 137.371371 8.53616094 128.735977 8.53616094 C 120.10912 8.53616094 113.104133 15.591298 113.104133 24.3216565 C 113.104133 33.042412 120.10912 40.1167554 128.735977 40.1167554 C 137.371371 40.1167554 144.371023 33.042412 144.371023 24.3216565 Z M 142.447186 107.534288 L 142.447186 48.9698214 C 142.447186 47.8579864 141.549822 46.9488852 140.441188 46.9488852 L 116.272115 46.9488852 C 115.163481 46.9488852 114.171153 48.0927309 114.171153 49.2045657 L 114.171153 133.109693 C 114.171153 135.575576 115.707662 136.308619 117.696587 136.308619 L 139.472334 136.308619 C 141.861392 136.308619 142.447186 135.135964 142.447186 133.070213 L 142.447186 107.534288 Z M 413.161929 46.9488852 L 389.10169 46.9488852 C 387.998389 46.9488852 387.099963 47.8579864 387.099963 48.9772906 L 387.099963 111.186697 C 387.099963 111.186697 380.988068 115.658579 372.312128 115.658579 C 363.637256 115.658579 361.334627 111.722341 361.334627 103.227794 L 361.334627 48.9772906 C 361.334627 47.8579864 360.43833 46.9488852 359.333962 46.9488852 L 334.915206 46.9488852 C 333.812978 46.9488852 332.910277 47.8579864 332.910277 48.9772906 L 332.910277 107.335822 C 332.910277 132.566579 346.972537 138.739291 366.317608 138.739291 C 382.1874 138.739291 394.983106 129.971587 394.983106 129.971587 C 394.983106 129.971587 395.592374 134.591784 395.867664 135.140232 C 396.144024 135.686546 396.862125 136.238196 397.63785 136.238196 L 413.172597 136.169906 C 414.274829 136.169906 415.177528 135.258671 415.177528 134.144702 L 415.170059 48.9772906 C 415.170059 47.8579864 414.27056 46.9488852 413.161929 46.9488852 Z M 468.596822 115.706595 C 460.251661 115.452644 454.591116 111.665789 454.591116 111.665789 L 454.591116 71.4882139 C 454.591116 71.4882139 460.175898 68.0652134 467.027235 67.4527437 C 475.691441 66.6770202 484.039804 69.2944203 484.039804 89.9626002 C 484.039804 111.757553 480.272156 116.058711 468.596822 115.706595 Z M 478.086899 44.2237159 C 464.421573 44.2237159 455.12676 50.3206689 455.12676 50.3206689 L 455.12676 7.35923776 C 455.12676 6.23886664 454.231532 5.33510059 453.126097 5.33510059 L 428.811913 5.33510059 C 427.706479 5.33510059 426.808048 6.23886664 426.808048 7.35923776 L 426.808048 134.231131 C 426.808048 135.350435 427.706479 136.26167 428.815112 136.26167 L 445.684702 136.26167 C 446.444417 136.26167 447.019542 135.870074 447.444215 135.18398 C 447.863555 134.502154 448.468557 129.334575 448.468557 129.334575 C 448.468557 129.334575 458.41105 138.756363 477.232216 138.756363 C 499.328069 138.756363 512 127.548384 512 88.4410293 C 512 49.3336752 491.761829 44.2237159 478.086899 44.2237159 Z M 212.229235 46.731213 L 194.041876 46.731213 C 194.041876 46.731213 194.014134 22.7093892 194.014134 22.704054 C 194.014134 21.7949529 193.545712 21.3404024 192.494697 21.3404024 L 167.709954 21.3404024 C 166.746435 21.3404024 166.22893 21.7640094 166.22893 22.6901829 L 166.22893 47.5197408 C 166.22893 47.5197408 153.808816 50.5180675 152.969071 50.760281 C 152.132527 51.0024947 151.516857 51.77395 151.516857 52.6937215 L 151.516857 68.2967567 C 151.516857 69.4192619 152.413154 70.3240948 153.521788 70.3240948 L 166.22893 70.3240948 L 166.22893 107.859729 C 166.22893 135.739897 185.785275 138.478938 198.98218 138.478938 C 205.011911 138.478938 212.224966 136.542296 213.41576 136.102684 C 214.135999 135.838063 214.554271 135.092216 214.554271 134.283415 L 214.574544 117.119329 C 214.574544 116.000025 213.629165 115.094125 212.564279 115.094125 C 211.504728 115.094125 208.79343 115.525201 206.002106 115.525201 C 197.069013 115.525201 194.041876 111.371292 194.041876 105.994577 C 194.041876 100.622131 194.04081 70.3240948 194.04081 70.3240948 L 212.229235 70.3240948 C 213.337868 70.3240948 214.235233 69.4192619 214.235233 68.2967567 L 214.235233 48.7532162 C 214.235233 47.633912 213.337868 46.731213 212.229235 46.731213 Z" stroke-linecap="round" />
</g>
</svg>