<?xml version="1.0" encoding="UTF-8" standalone="no" ?>
<!DOCTYPE svg PUBLIC "-//W3C//DTD SVG 1.1//EN" "http://www.w3.org/Graphics/SVG/1.1/DTD/svg11.dtd">
<svg xmlns="http://www.w3.org/2000/svg" xmlns:xlink="http://www.w3.org/1999/xlink" version="1.1" width="1080" height="1080" viewBox="0 0 1080 1080" xml:space="preserve">
<desc>Created with Fabric.js 5.2.4</desc>
<defs>
</defs>
<g transform="matrix(1 0 0 1 540 540)" id="efc3f3cd-a6e2-4fa5-89ce-83532a91e0cf"  >
<rect style="stroke: none; stroke-width: 1; stroke-dasharray: none; stroke-linecap: butt; stroke-dashoffset: 0; stroke-linejoin: miter; stroke-miterlimit: 4; fill: rgb(255,255,255); fill-rule: nonzero; opacity: 1;" vector-effect="non-scaling-stroke"  x="-540" y="-540" rx="0" ry="0" width="1080" height="1080" />
</g>
<g transform="matrix(1 0 0 1 540 540)" id="db1ebb62-e846-4411-bb25-22eb08899e01"  >
</g>
<g transform="matrix(0.38 0 0 0.38 540 540)"  >
<g style="" vector-effect="non-scaling-stroke"   >
		<g transform="matrix(4.19 0 0 4.19 -941.73 -91.36)"  >
<path style="stroke: none; stroke-width: 1; stroke-dasharray: none; stroke-linecap: butt; stroke-dashoffset: 0; stroke-linejoin: miter; stroke-miterlimit: 4; fill: rgb(55,128,255); fill-rule: nonzero; opacity: 1;" vector-effect="non-scaling-stroke"  transform=" translate(-73.49, -75.49)" d="M 73.4 0 L 78.7 0 C 97.1 0.4 115.2 7.8 128.2 20.9 C 123.39999999999999 25.799999999999997 118.49999999999999 30.5 113.79999999999998 35.4 C 106.49999999999999 28.799999999999997 97.69999999999999 23.7 88.09999999999998 21.9 C 73.89999999999998 18.9 58.59999999999998 21.599999999999998 46.69999999999998 29.7 C 33.7 38.2 24.9 52.6 23 68 C 20.9 83.2 25.2 99.2 35.1 111 C 44.6 122.5 59.1 129.7 74.1 130.2 C 88.1 131 102.69999999999999 126.69999999999999 112.89999999999999 116.89999999999999 C 120.89999999999999 109.99999999999999 124.6 99.5 125.8 89.29999999999998 C 109.19999999999999 89.29999999999998 92.6 89.39999999999998 76 89.29999999999998 L 76 68.7 L 145.9 68.7 C 149.5 90.80000000000001 144.3 115.7 127.5 131.5 C 116.3 142.7 100.8 149.3 85 150.6 C 69.7 152.1 53.9 149.2 40.3 141.79999999999998 C 24 133.1 11 118.4 4.6 101.1 C -1.4000000000000004 85.19999999999999 -1.5 67.19999999999999 4.1 51.199999999999996 C 9.2 36.6 19 23.7 31.6 14.7 C 43.7 5.8 58.4 0.9 73.4 0 z" stroke-linecap="round" />
</g>
		<g transform="matrix(4.19 0 0 4.19 784.82 -86.66)"  >
<path style="stroke: none; stroke-width: 1; stroke-dasharray: none; stroke-linecap: butt; stroke-dashoffset: 0; stroke-linejoin: miter; stroke-miterlimit: 4; fill: rgb(56,177,55); fill-rule: nonzero; opacity: 1;" vector-effect="non-scaling-stroke"  transform=" translate(-485.1, -76.61)" d="M 474.4 5.2 L 495.79999999999995 5.2 L 495.79999999999995 148 C 488.69999999999993 148 481.49999999999994 148.1 474.4 147.9 C 474.5 100.4 474.4 52.80000000000001 474.4 5.200000000000017 z" stroke-linecap="round" />
</g>
		<g transform="matrix(4.19 0 0 4.19 -398.51 21.53)"  >
<path style="stroke: none; stroke-width: 1; stroke-dasharray: none; stroke-linecap: butt; stroke-dashoffset: 0; stroke-linejoin: miter; stroke-miterlimit: 4; fill: rgb(250,57,19); fill-rule: nonzero; opacity: 1;" vector-effect="non-scaling-stroke"  transform=" translate(-202.99, -102.41)" d="M 193.5 54.7 C 206.7 52.2 221 55 231.9 62.900000000000006 C 241.8 69.9 248.70000000000002 80.9 250.8 92.9 C 253.5 106.80000000000001 250.10000000000002 122 241.10000000000002 133 C 231.40000000000003 145.3 215.50000000000003 151.9 200.00000000000003 150.9 C 185.80000000000004 150.1 172.00000000000003 143 163.60000000000002 131.4 C 154.10000000000002 118.60000000000001 151.8 101 157.00000000000003 86 C 162.20000000000002 69.9 176.90000000000003 57.6 193.50000000000003 54.7 M 196.50000000000003 73.7 C 191.10000000000002 75.10000000000001 186.10000000000002 78.2 182.50000000000003 82.60000000000001 C 172.80000000000004 94.2 173.40000000000003 113.10000000000001 184.10000000000002 123.9 C 190.20000000000002 130.1 199.40000000000003 133 207.90000000000003 131.3 C 215.80000000000004 129.9 222.70000000000005 124.60000000000001 226.50000000000003 117.60000000000001 C 233.10000000000002 105.7 231.20000000000002 89.30000000000001 221.10000000000002 80 C 214.60000000000002 74 205.10000000000002 71.5 196.50000000000003 73.7 z" stroke-linecap="round" />
</g>
		<g transform="matrix(4.19 0 0 4.19 46.1 21.41)"  >
<path style="stroke: none; stroke-width: 1; stroke-dasharray: none; stroke-linecap: butt; stroke-dashoffset: 0; stroke-linejoin: miter; stroke-miterlimit: 4; fill: rgb(252,189,6); fill-rule: nonzero; opacity: 1;" vector-effect="non-scaling-stroke"  transform=" translate(-308.99, -102.38)" d="M 299.5 54.7 C 314.6 51.800000000000004 331.1 56 342.4 66.60000000000001 C 360.79999999999995 83.10000000000001 362.79999999999995 114 347.09999999999997 133 C 337.59999999999997 145 322.2 151.6 306.99999999999994 150.9 C 292.49999999999994 150.5 278.19999999999993 143.3 269.59999999999997 131.4 C 259.9 118.30000000000001 257.79999999999995 100.30000000000001 263.29999999999995 85 C 268.79999999999995 69.4 283.19999999999993 57.5 299.49999999999994 54.7 M 302.49999999999994 73.7 C 297.09999999999997 75.10000000000001 292.09999999999997 78.2 288.49999999999994 82.5 C 278.8999999999999 93.9 279.29999999999995 112.5 289.59999999999997 123.4 C 295.7 129.9 305.2 133.1 313.99999999999994 131.3 C 321.79999999999995 129.8 328.79999999999995 124.60000000000001 332.59999999999997 117.60000000000001 C 339.09999999999997 105.60000000000001 337.2 89.20000000000002 326.99999999999994 79.9 C 320.49999999999994 73.9 310.99999999999994 71.5 302.49999999999994 73.7 z" stroke-linecap="round" />
</g>
		<g transform="matrix(4.19 0 0 4.19 480.42 112.84)"  >
<path style="stroke: none; stroke-width: 1; stroke-dasharray: none; stroke-linecap: butt; stroke-dashoffset: 0; stroke-linejoin: miter; stroke-miterlimit: 4; fill: rgb(55,128,255); fill-rule: nonzero; opacity: 1;" vector-effect="non-scaling-stroke"  transform=" translate(-412.53, -124.17)" d="M 389.4 60.5 C 400.9 53.3 416.2 51.3 428.59999999999997 57.5 C 432.49999999999994 59.2 435.7 62.1 438.79999999999995 65 C 438.9 62.3 438.79999999999995 59.5 438.9 56.7 C 445.59999999999997 56.800000000000004 452.29999999999995 56.7 459.09999999999997 56.800000000000004 L 459.09999999999997 145 C 458.99999999999994 158.3 455.59999999999997 172.4 445.99999999999994 182.1 C 435.49999999999994 192.79999999999998 419.3999999999999 196.1 404.8999999999999 193.9 C 389.3999999999999 191.6 375.8999999999999 180.3 369.8999999999999 166 C 375.8999999999999 163.1 382.19999999999993 160.8 388.3999999999999 158.1 C 391.8999999999999 166.29999999999998 398.99999999999994 173.29999999999998 407.8999999999999 174.9 C 416.7999999999999 176.5 427.0999999999999 174.3 432.8999999999999 166.9 C 439.0999999999999 159.3 439.0999999999999 148.9 438.7999999999999 139.6 C 434.1999999999999 144.1 428.8999999999999 148.1 422.4999999999999 149.6 C 408.5999999999999 153.5 393.2999999999999 148.7 382.5999999999999 139.29999999999998 C 371.7999999999999 129.89999999999998 365.3999999999999 115.39999999999998 365.9999999999999 100.99999999999999 C 366.2999999999999 84.69999999999999 375.4999999999999 68.99999999999999 389.39999999999986 60.499999999999986 M 410.09999999999985 73.29999999999998 C 403.99999999999983 74.29999999999998 398.29999999999984 77.69999999999999 394.39999999999986 82.39999999999998 C 384.9999999999999 93.59999999999998 384.9999999999999 111.49999999999997 394.4999999999999 122.49999999999997 C 399.89999999999986 128.99999999999997 408.5999999999999 132.59999999999997 416.9999999999999 131.69999999999996 C 424.89999999999986 130.89999999999995 432.1999999999999 125.89999999999996 436.0999999999999 118.99999999999996 C 442.69999999999993 107.29999999999995 441.5999999999999 91.39999999999995 432.69999999999993 81.19999999999996 C 427.19999999999993 74.89999999999996 418.3999999999999 71.79999999999995 410.0999999999999 73.29999999999995 z" stroke-linecap="round" />
</g>
		<g transform="matrix(4.19 0 0 4.19 1061.96 21.27)"  >
<path style="stroke: none; stroke-width: 1; stroke-dasharray: none; stroke-linecap: butt; stroke-dashoffset: 0; stroke-linejoin: miter; stroke-miterlimit: 4; fill: rgb(250,57,19); fill-rule: nonzero; opacity: 1;" vector-effect="non-scaling-stroke"  transform=" translate(-551.17, -102.34)" d="M 521.5 65.6 C 533.5 54.39999999999999 552 50.599999999999994 567.4 56.49999999999999 C 582 62 591.3 75.9 596 90.2 C 574.3 99.2 552.7 108.1 531 117.1 C 534 122.8 538.6 128 544.8 130.1 C 553.5 133.2 563.9 132.1 571.1999999999999 126.3 C 574.0999999999999 124.1 576.4 121.2 578.5999999999999 118.39999999999999 C 584.0999999999999 122.1 589.5999999999999 125.69999999999999 595.0999999999999 129.39999999999998 C 587.3 141.09999999999997 574.1999999999999 149.29999999999998 560.0999999999999 150.59999999999997 C 544.4999999999999 152.49999999999997 527.8999999999999 146.49999999999997 517.8 134.29999999999995 C 501.19999999999993 115.09999999999995 502.79999999999995 82.89999999999995 521.5 65.59999999999995 M 532.2 84.09999999999995 C 528.8000000000001 88.99999999999996 527.4000000000001 94.99999999999996 527.5 100.89999999999995 C 542 94.89999999999995 556.5 88.89999999999995 571 82.79999999999995 C 568.6 77.19999999999996 562.8 73.79999999999995 556.9 72.89999999999995 C 547.4 71.19999999999995 537.5 76.29999999999995 532.1999999999999 84.09999999999995 z" stroke-linecap="round" />
</g>
</g>
</g>
</svg>