<svg version="1.1" id="Layer_1" xmlns="http://www.w3.org/2000/svg" xmlns:xlink="http://www.w3.org/1999/xlink" x="0px" y="0px"
	 width="100%" viewBox="0 0 400 400" enable-background="new 0 0 400 400" xml:space="preserve">
<path fill="#0FB94D" opacity="1.000000" stroke="none" 
	d="
M225.000000,1.000001 
	C226.714355,1.000000 228.428711,1.000000 230.441956,1.383092 
	C232.079880,2.517962 233.339081,3.651608 234.772629,3.951242 
	C239.415817,4.921748 244.295914,5.042693 248.774048,6.467462 
	C263.971710,11.302773 279.566345,15.302420 293.335999,23.718376 
	C304.774139,30.709320 316.744751,37.213795 326.918976,45.785908 
	C338.363922,55.428650 348.610077,66.676147 358.379456,78.080704 
	C371.273193,93.132416 381.121185,110.241074 388.041656,128.886246 
	C393.288086,143.021164 397.677246,157.403656 399.127289,172.527252 
	C399.179626,173.072983 400.350433,173.511505 401.000000,174.000000 
	C401.000000,192.020889 401.000000,210.041794 400.587799,228.434113 
	C399.129578,233.178635 397.831268,237.509033 397.082336,241.932449 
	C394.221130,258.831116 388.641815,274.892883 380.824860,289.993591 
	C375.437500,300.400879 368.489960,310.020966 361.988556,319.826385 
	C351.592987,335.504883 338.153381,348.385010 323.417633,359.837524 
	C310.878693,369.582764 297.286041,377.744476 282.650024,384.097290 
	C267.722260,390.576752 252.312485,395.327118 236.256989,398.063385 
	C233.420227,398.546844 230.748123,399.996490 228.000000,401.000000 
	C210.645767,401.000000 193.291550,401.000000 175.574158,400.583984 
	C174.536804,399.789429 173.892288,399.150726 173.184158,399.070007 
	C150.815582,396.520111 129.881104,389.550995 109.801910,379.441711 
	C83.360741,366.129272 61.340683,347.571350 43.023773,324.514862 
	C29.283176,307.218842 18.183800,288.310791 11.732185,267.116730 
	C8.034160,254.968430 5.877733,242.352554 2.924924,229.971603 
	C2.742087,229.204971 1.662411,228.652252 0.999999,228.000000 
	C1.000000,209.645767 1.000000,191.291550 1.401785,172.567810 
	C2.164219,171.688461 2.718982,171.226074 2.856903,170.661819 
	C5.724664,158.928955 8.285293,147.114197 11.440422,135.460114 
	C15.426512,120.736755 22.831770,107.448578 30.930117,94.743759 
	C41.189240,78.649094 52.677132,63.358261 68.034355,51.552589 
	C77.922310,43.951351 87.388252,35.599987 98.019012,29.207315 
	C121.401627,15.146484 146.579910,5.563161 174.038071,2.888318 
	C174.746643,2.819293 175.348419,1.654022 176.000000,1.000000 
	C191.687561,1.000000 207.375122,1.000000 223.296539,1.287758 
	C223.953156,1.857707 224.375916,2.139896 224.798706,2.422088 
	C224.865799,1.948060 224.932907,1.474031 225.000000,1.000001 
M147.713867,176.095749 
	C148.760223,176.592392 150.414581,176.830826 150.753143,177.628036 
	C152.780457,182.401581 157.182083,184.085403 160.961029,186.954498 
	C169.626556,193.533646 178.722321,198.172134 189.530823,199.304428 
	C191.484940,199.509140 193.478882,199.333588 195.454437,199.333588 
	C195.558578,199.990250 195.662735,200.646912 195.766876,201.303558 
	C192.609253,202.066376 189.448502,202.816620 186.294739,203.595032 
	C181.789505,204.707031 176.687241,204.868500 172.931778,207.196899 
	C167.633759,210.481689 163.304672,215.243790 156.393600,215.253494 
	C155.628983,215.254562 154.760513,216.624893 154.128983,217.496902 
	C153.288071,218.657974 152.757767,220.052231 151.873276,221.171936 
	C149.335571,224.384567 146.626129,227.461838 144.098175,230.681808 
	C141.487915,234.006622 139.011566,237.436569 135.970276,241.496490 
	C135.669052,243.856659 136.422424,248.486206 134.467377,251.052094 
	C130.548691,256.195160 130.904968,261.593842 131.046921,267.176025 
	C131.190201,272.811005 131.649277,278.439056 132.036545,284.065613 
	C132.102646,285.025940 132.210510,286.229706 132.794083,286.869629 
	C138.069153,292.654510 138.873459,300.704712 143.652802,307.053314 
	C147.987152,312.810822 152.279816,318.181763 157.901642,322.610168 
	C160.927521,324.993683 163.751678,327.633301 166.286880,329.828400 
	C169.061630,330.526642 172.533646,330.354340 174.043991,331.991608 
	C177.513809,335.753052 181.845978,335.059998 185.943466,335.752380 
	C188.024628,336.104004 190.163269,336.190887 192.279739,336.243225 
	C197.225967,336.365479 202.241119,336.939423 207.107758,336.344269 
	C216.317688,335.217926 225.445206,333.412262 234.599152,331.843231 
	C235.391708,331.707397 236.319107,331.425293 236.857071,330.885468 
	C240.951752,326.776581 243.096481,321.247620 249.417282,318.617218 
	C253.243195,317.025024 255.312088,311.062225 258.008148,306.956573 
	C259.765686,304.280151 261.706757,301.575562 262.730286,298.596588 
	C264.894226,292.298157 271.547333,287.577698 269.431671,279.737579 
	C269.257782,279.093079 269.835754,278.109467 270.300903,277.450317 
	C274.038574,272.153961 267.996674,266.628235 270.693085,261.311615 
	C270.767426,261.165009 270.409058,260.740204 270.185394,260.510376 
	C268.304688,258.577667 266.734161,255.961746 264.444183,254.893585 
	C260.514893,253.060822 257.518524,248.205139 251.927292,250.685074 
	C250.477417,251.328171 248.196671,249.950165 246.611267,250.465561 
	C243.047150,251.624146 238.432281,252.468658 236.495026,255.098434 
	C232.611694,260.369904 231.213394,266.892334 230.823853,273.710785 
	C230.227280,284.153198 222.509842,290.116669 215.006729,295.938110 
	C214.283997,296.498840 213.155502,296.563904 212.199219,296.791199 
	C209.432495,297.448822 206.648651,298.036346 203.890747,298.728088 
	C202.960556,298.961426 201.646408,299.995697 201.257019,299.694672 
	C197.155914,296.524048 191.361496,298.279236 187.934387,296.212006 
	C183.976944,293.824860 181.648804,288.486877 176.321396,287.154877 
	C176.996689,283.214996 174.075455,280.982513 172.168594,278.238373 
	C171.632156,277.466400 171.038055,275.767792 171.317184,275.542267 
	C174.915756,272.634766 172.371216,268.760162 173.158371,265.510559 
	C173.983353,262.104706 175.855042,258.949097 177.301056,255.698257 
	C178.110474,253.878601 178.984436,252.087646 179.829300,250.283768 
	C179.370499,249.785324 178.911682,249.286865 178.452866,248.788406 
	C182.151733,247.626556 187.044434,247.555008 189.305069,245.079666 
	C194.267441,239.646057 200.293137,240.562866 206.248871,239.993683 
	C217.175400,238.949463 228.088562,241.665436 239.028870,240.036407 
	C242.272141,239.553467 245.595047,239.628036 248.869812,239.322327 
	C250.174774,239.200485 251.850784,239.154587 252.665527,238.362198 
	C255.999649,235.119644 259.478607,231.893509 262.142792,228.123245 
	C267.093964,221.116608 270.222504,213.526779 270.117767,204.488922 
	C269.793365,176.493103 270.013458,148.491119 269.958008,120.491661 
	C269.954834,118.891861 269.724915,117.115295 269.010620,115.723824 
	C265.300354,108.496140 261.224243,101.453308 257.612885,94.178642 
	C254.069412,87.040733 247.890900,82.651001 241.920837,77.939957 
	C239.878479,76.328331 238.141525,74.329674 236.265045,72.507843 
	C234.565079,71.421303 231.245422,72.289413 229.590149,71.007828 
	C224.637543,67.173363 219.020462,66.712975 213.275070,66.054329 
	C198.470871,64.357201 183.841324,63.665257 170.571381,72.524139 
	C168.482651,70.988945 166.046814,67.667244 164.231934,72.441368 
	C162.613358,76.699074 159.893433,79.092995 155.856781,81.117058 
	C152.353165,82.873840 149.190491,85.862862 146.716187,88.974495 
	C143.889328,92.529503 141.889374,96.768059 139.717636,100.810341 
	C137.739365,104.492531 135.198517,108.134171 134.342697,112.103531 
	C132.530716,120.507675 131.516876,129.096848 130.470718,137.646255 
	C130.096909,140.701202 129.363586,144.815277 130.910599,146.777222 
	C134.349045,151.137802 134.953705,155.727020 135.099136,160.801529 
	C135.128983,161.843201 136.001373,163.404907 136.890488,163.788910 
	C142.395462,166.166382 143.345245,172.186584 146.473419,176.086472 
	C146.171478,176.369766 145.869537,176.653061 145.567596,176.936356 
	C145.758240,177.098480 145.948868,177.260605 146.139511,177.422729 
	C146.426544,176.948685 146.713577,176.474655 147.713867,176.095749 
M131.075287,101.615089 
	C131.287888,102.558884 131.500473,103.502678 131.713074,104.446472 
	C132.049881,104.460602 132.386688,104.474724 132.723495,104.488853 
	C133.455719,102.313828 134.187927,100.138794 134.920151,97.963768 
	C134.357849,97.736687 133.795547,97.509613 133.233261,97.282532 
	C132.557083,98.490807 131.880920,99.699089 131.075287,101.615089 
M134.470825,304.756836 
	C135.271835,303.877594 136.072861,302.998383 136.873886,302.119171 
	C136.258514,301.750244 135.643158,301.381317 135.027786,301.012421 
	C134.628281,302.199005 134.228775,303.385590 134.470825,304.756836 
M266.259735,303.496704 
	C266.941925,303.798553 267.624146,304.100433 268.306366,304.402283 
	C268.419434,303.977234 268.532532,303.552216 268.645599,303.127167 
	C267.902985,303.041718 267.160400,302.956268 266.259735,303.496704 
M267.686371,97.447433 
	C267.307648,98.034492 266.928925,98.621552 266.550201,99.208611 
	C267.099640,99.330589 267.649048,99.452568 268.198456,99.574547 
	C268.226318,98.901253 268.254181,98.227951 267.686371,97.447433 
M270.663788,297.966187 
	C270.196350,298.072998 269.728912,298.179779 269.261475,298.286591 
	C269.470367,298.661957 269.679291,299.037354 269.888184,299.412720 
	C270.187744,299.109009 270.487305,298.805298 270.663788,297.966187 
M269.832947,103.480476 
	C269.897583,103.817131 269.962219,104.153786 270.026855,104.490448 
	C270.102753,104.155975 270.178650,103.821495 269.832947,103.480476 
z"/>
<path fill="#000000" opacity="1.000000" stroke="none" 
	d="
M401.000000,173.531342 
	C400.350433,173.511505 399.179626,173.072983 399.127289,172.527252 
	C397.677246,157.403656 393.288086,143.021164 388.041656,128.886246 
	C381.121185,110.241074 371.273193,93.132416 358.379456,78.080704 
	C348.610077,66.676147 338.363922,55.428650 326.918976,45.785908 
	C316.744751,37.213795 304.774139,30.709320 293.335999,23.718376 
	C279.566345,15.302420 263.971710,11.302773 248.774048,6.467462 
	C244.295914,5.042693 239.415817,4.921748 234.772629,3.951242 
	C233.339081,3.651608 232.079880,2.517962 230.870422,1.383092 
	C287.594299,1.000000 344.188629,1.000000 401.000000,1.000000 
	C401.000000,58.354046 401.000000,115.708366 401.000000,173.531342 
z"/>
<path fill="#000000" opacity="1.000000" stroke="none" 
	d="
M175.531342,1.000000 
	C175.348419,1.654022 174.746643,2.819293 174.038071,2.888318 
	C146.579910,5.563161 121.401627,15.146484 98.019012,29.207315 
	C87.388252,35.599987 77.922310,43.951351 68.034355,51.552589 
	C52.677132,63.358261 41.189240,78.649094 30.930117,94.743759 
	C22.831770,107.448578 15.426512,120.736755 11.440422,135.460114 
	C8.285293,147.114197 5.724664,158.928955 2.856903,170.661819 
	C2.718982,171.226074 2.164219,171.688461 1.401785,172.099152 
	C1.000000,115.072136 1.000000,58.144276 1.000000,1.000000 
	C59.020714,1.000000 117.041702,1.000000 175.531342,1.000000 
z"/>
<path fill="#000000" opacity="1.000000" stroke="none" 
	d="
M228.468658,401.000000 
	C230.748123,399.996490 233.420227,398.546844 236.256989,398.063385 
	C252.312485,395.327118 267.722260,390.576752 282.650024,384.097290 
	C297.286041,377.744476 310.878693,369.582764 323.417633,359.837524 
	C338.153381,348.385010 351.592987,335.504883 361.988556,319.826385 
	C368.489960,310.020966 375.437500,300.400879 380.824860,289.993591 
	C388.641815,274.892883 394.221130,258.831116 397.082336,241.932449 
	C397.831268,237.509033 399.129578,233.178635 400.587799,228.902771 
	C401.000000,286.260559 401.000000,343.521149 401.000000,401.000000 
	C343.645966,401.000000 286.291626,401.000000 228.468658,401.000000 
z"/>
<path fill="#000000" opacity="1.000000" stroke="none" 
	d="
M0.999999,228.468658 
	C1.662411,228.652252 2.742087,229.204971 2.924924,229.971603 
	C5.877733,242.352554 8.034160,254.968430 11.732185,267.116730 
	C18.183800,288.310791 29.283176,307.218842 43.023773,324.514862 
	C61.340683,347.571350 83.360741,366.129272 109.801910,379.441711 
	C129.881104,389.550995 150.815582,396.520111 173.184158,399.070007 
	C173.892288,399.150726 174.536804,399.789429 175.105499,400.583984 
	C117.073196,401.000000 59.146385,401.000000 1.000000,401.000000 
	C1.000000,343.645966 1.000000,286.291626 0.999999,228.468658 
z"/>
<path fill="#000000" opacity="1.000000" stroke="none" 
	d="
M224.750000,1.000001 
	C224.932907,1.474031 224.865799,1.948060 224.798706,2.422088 
	C224.375916,2.139896 223.953156,1.857707 223.765198,1.287758 
	C224.000000,1.000000 224.500000,1.000000 224.750000,1.000001 
z"/>
<path fill="#17B651" opacity="1.000000" stroke="none" 
	d="
M146.999390,175.999390 
	C143.345245,172.186584 142.395462,166.166382 136.890488,163.788910 
	C136.001373,163.404907 135.128983,161.843201 135.099136,160.801529 
	C134.953705,155.727020 134.349045,151.137802 130.910599,146.777222 
	C129.363586,144.815277 130.096909,140.701202 130.470718,137.646255 
	C131.516876,129.096848 132.530716,120.507675 134.342697,112.103531 
	C135.198517,108.134171 137.739365,104.492531 139.717636,100.810341 
	C141.889374,96.768059 143.889328,92.529503 146.716187,88.974495 
	C149.190491,85.862862 152.353165,82.873840 155.856781,81.117058 
	C159.893433,79.092995 162.613358,76.699074 164.231934,72.441368 
	C166.046814,67.667244 168.482651,70.988945 170.571381,72.524139 
	C183.841324,63.665257 198.470871,64.357201 213.275070,66.054329 
	C219.020462,66.712975 224.637543,67.173363 229.590149,71.007828 
	C231.245422,72.289413 234.565079,71.421303 236.265045,72.507843 
	C238.141525,74.329674 239.878479,76.328331 241.920837,77.939957 
	C247.890900,82.651001 254.069412,87.040733 257.612885,94.178642 
	C261.224243,101.453308 265.300354,108.496140 269.010620,115.723824 
	C269.724915,117.115295 269.954834,118.891861 269.958008,120.491661 
	C270.013458,148.491119 269.793365,176.493103 270.117767,204.488922 
	C270.222504,213.526779 267.093964,221.116608 262.142792,228.123245 
	C259.478607,231.893509 255.999649,235.119644 252.665527,238.362198 
	C251.850784,239.154587 250.174774,239.200485 248.869812,239.322327 
	C245.595047,239.628036 242.272141,239.553467 239.028870,240.036407 
	C228.088562,241.665436 217.175400,238.949463 206.248871,239.993683 
	C200.293137,240.562866 194.267441,239.646057 189.305069,245.079666 
	C187.044434,247.555008 182.151733,247.626556 178.452866,248.788406 
	C178.911682,249.286865 179.370499,249.785324 179.829300,250.283768 
	C178.984436,252.087646 178.110474,253.878601 177.301056,255.698257 
	C175.855042,258.949097 173.983353,262.104706 173.158371,265.510559 
	C172.371216,268.760162 174.915756,272.634766 171.317184,275.542267 
	C171.038055,275.767792 171.632156,277.466400 172.168594,278.238373 
	C174.075455,280.982513 176.996689,283.214996 176.321396,287.154877 
	C181.648804,288.486877 183.976944,293.824860 187.934387,296.212006 
	C191.361496,298.279236 197.155914,296.524048 201.257019,299.694672 
	C201.646408,299.995697 202.960556,298.961426 203.890747,298.728088 
	C206.648651,298.036346 209.432495,297.448822 212.199219,296.791199 
	C213.155502,296.563904 214.283997,296.498840 215.006729,295.938110 
	C222.509842,290.116669 230.227280,284.153198 230.823853,273.710785 
	C231.213394,266.892334 232.611694,260.369904 236.495026,255.098434 
	C238.432281,252.468658 243.047150,251.624146 246.611267,250.465561 
	C248.196671,249.950165 250.477417,251.328171 251.927292,250.685074 
	C257.518524,248.205139 260.514893,253.060822 264.444183,254.893585 
	C266.734161,255.961746 268.304688,258.577667 270.185394,260.510376 
	C270.409058,260.740204 270.767426,261.165009 270.693085,261.311615 
	C267.996674,266.628235 274.038574,272.153961 270.300903,277.450317 
	C269.835754,278.109467 269.257782,279.093079 269.431671,279.737579 
	C271.547333,287.577698 264.894226,292.298157 262.730286,298.596588 
	C261.706757,301.575562 259.765686,304.280151 258.008148,306.956573 
	C255.312088,311.062225 253.243195,317.025024 249.417282,318.617218 
	C243.096481,321.247620 240.951752,326.776581 236.857071,330.885468 
	C236.319107,331.425293 235.391708,331.707397 234.599152,331.843231 
	C225.445206,333.412262 216.317688,335.217926 207.107758,336.344269 
	C202.241119,336.939423 197.225967,336.365479 192.279739,336.243225 
	C190.163269,336.190887 188.024628,336.104004 185.943466,335.752380 
	C181.845978,335.059998 177.513809,335.753052 174.043991,331.991608 
	C172.533646,330.354340 169.061630,330.526642 166.286880,329.828400 
	C163.751678,327.633301 160.927521,324.993683 157.901642,322.610168 
	C152.279816,318.181763 147.987152,312.810822 143.652802,307.053314 
	C138.873459,300.704712 138.069153,292.654510 132.794083,286.869629 
	C132.210510,286.229706 132.102646,285.025940 132.036545,284.065613 
	C131.649277,278.439056 131.190201,272.811005 131.046921,267.176025 
	C130.904968,261.593842 130.548691,256.195160 134.467377,251.052094 
	C136.422424,248.486206 135.669052,243.856659 135.970276,241.496490 
	C139.011566,237.436569 141.487915,234.006622 144.098175,230.681808 
	C146.626129,227.461838 149.335571,224.384567 151.873276,221.171936 
	C152.757767,220.052231 153.288071,218.657974 154.128983,217.496902 
	C154.760513,216.624893 155.628983,215.254562 156.393600,215.253494 
	C163.304672,215.243790 167.633759,210.481689 172.931778,207.196899 
	C176.687241,204.868500 181.789505,204.707031 186.294739,203.595032 
	C189.448502,202.816620 192.609253,202.066376 195.766876,201.303558 
	C195.662735,200.646912 195.558578,199.990250 195.454437,199.333588 
	C193.478882,199.333588 191.484940,199.509140 189.530823,199.304428 
	C178.722321,198.172134 169.626556,193.533646 160.961029,186.954498 
	C157.182083,184.085403 152.780457,182.401581 150.753143,177.628036 
	C150.414581,176.830826 148.760223,176.592392 147.356934,176.047882 
	C147.000000,176.000000 146.999390,175.999390 146.999390,175.999390 
M197.505524,237.775742 
	C208.584015,237.860809 219.662537,237.998047 230.740967,237.990005 
	C233.164597,237.988251 235.587875,237.468307 238.773102,236.998703 
	C239.848083,236.643936 240.900497,236.181244 242.001511,235.950867 
	C254.805161,233.271820 264.558197,221.892532 266.923523,208.839874 
	C267.288361,207.472351 267.967896,206.105591 267.971252,204.737183 
	C268.031586,180.008652 268.042969,155.279755 267.928772,130.551590 
	C267.921631,129.008606 266.794006,127.470802 266.036224,125.094696 
	C264.556213,108.881996 256.643188,95.774239 245.186417,84.972466 
	C237.826019,78.032852 228.881851,73.247421 218.702667,70.796608 
	C207.014771,67.982559 195.073059,67.516502 183.853897,70.481873 
	C167.295013,74.858589 153.884415,84.532043 144.574677,99.668076 
	C130.376801,122.751404 131.916733,145.917404 145.733917,167.616348 
	C157.541580,186.159439 175.748886,196.399643 198.398239,196.912354 
	C201.603012,196.984894 205.105865,196.514175 207.997391,195.229492 
	C214.466660,192.355209 217.860245,185.290665 217.002121,178.064423 
	C216.353317,172.600800 211.017075,167.445068 204.266418,165.967361 
	C196.544144,164.276978 188.639359,164.197159 181.558578,159.246140 
	C164.121414,147.053741 162.722519,124.667732 176.787582,109.676895 
	C187.555191,98.200562 212.020142,96.898338 223.808151,109.244789 
	C228.873581,114.550179 233.786255,119.795502 233.846054,128.719879 
	C233.859192,152.864777 233.872330,177.009689 233.673767,201.757584 
	C232.165359,202.803131 230.656937,203.848694 228.188141,204.928375 
	C221.457748,204.936371 214.725342,204.848969 207.997742,204.990280 
	C204.320297,205.067551 200.650986,205.531738 196.117096,205.958466 
	C177.714569,207.267105 162.445557,214.687912 150.428665,228.868637 
	C135.410889,246.590576 131.500397,266.540985 137.913025,288.658691 
	C141.690353,301.687042 149.607574,311.930725 159.994598,320.369354 
	C169.159058,327.814728 179.844376,332.638458 191.387100,333.608307 
	C210.299026,335.197327 227.996719,331.779327 243.218475,318.616425 
	C251.599609,311.368927 258.144226,303.188599 261.799377,293.099762 
	C264.485718,285.684967 265.965271,277.623169 266.540070,269.744476 
	C266.814453,265.983612 264.766876,260.766510 261.939941,258.360016 
	C257.404327,254.498947 251.418076,251.971970 244.969910,255.023331 
	C238.558548,258.057312 234.937698,262.604065 234.808517,270.230255 
	C234.730347,274.844818 233.584122,279.909271 231.389038,283.938843 
	C221.909637,301.340118 199.009338,309.131744 180.596695,295.465210 
	C162.709488,282.188660 162.722061,254.600555 182.520477,242.961731 
	C186.931366,240.368729 192.094757,239.055756 197.505524,237.775742 
z"/>
<path fill="#17B651" opacity="1.000000" stroke="none" 
	d="
M131.140015,101.261230 
	C131.880920,99.699089 132.557083,98.490807 133.233261,97.282532 
	C133.795547,97.509613 134.357849,97.736687 134.920151,97.963768 
	C134.187927,100.138794 133.455719,102.313828 132.723495,104.488853 
	C132.386688,104.474724 132.049881,104.460602 131.713074,104.446472 
	C131.500473,103.502678 131.287888,102.558884 131.140015,101.261230 
z"/>
<path fill="#17B651" opacity="1.000000" stroke="none" 
	d="
M134.150055,304.664490 
	C134.228775,303.385590 134.628281,302.199005 135.027786,301.012421 
	C135.643158,301.381317 136.258514,301.750244 136.873886,302.119171 
	C136.072861,302.998383 135.271835,303.877594 134.150055,304.664490 
z"/>
<path fill="#17B651" opacity="1.000000" stroke="none" 
	d="
M266.338745,303.183777 
	C267.160400,302.956268 267.902985,303.041718 268.645630,303.127167 
	C268.532532,303.552216 268.419434,303.977234 268.306335,304.402283 
	C267.624146,304.100433 266.941925,303.798553 266.338745,303.183777 
z"/>
<path fill="#17B651" opacity="1.000000" stroke="none" 
	d="
M267.984192,97.501045 
	C268.254181,98.227951 268.226318,98.901253 268.198486,99.574547 
	C267.649048,99.452568 267.099640,99.330589 266.550201,99.208618 
	C266.928925,98.621552 267.307648,98.034492 267.984192,97.501045 
z"/>
<path fill="#17B651" opacity="1.000000" stroke="none" 
	d="
M270.725342,298.233887 
	C270.487305,298.805298 270.187744,299.109009 269.888184,299.412720 
	C269.679291,299.037354 269.470367,298.661957 269.261475,298.286591 
	C269.728912,298.179779 270.196350,298.072998 270.725342,298.233887 
z"/>
<path fill="#17B651" opacity="1.000000" stroke="none" 
	d="
M270.043762,103.483749 
	C270.178650,103.821495 270.102753,104.155975 270.026855,104.490448 
	C269.962219,104.153786 269.897583,103.817131 270.043762,103.483749 
z"/>
<path fill="#17B651" opacity="1.000000" stroke="none" 
	d="
M147.000305,176.000305 
	C146.713577,176.474655 146.426544,176.948685 146.139511,177.422729 
	C145.948868,177.260605 145.758240,177.098480 145.567596,176.936356 
	C145.869537,176.653061 146.171478,176.369766 146.736404,176.042938 
	C146.999390,175.999390 147.000000,176.000000 147.000305,176.000305 
z"/>
<path fill="#000000" opacity="1.000000" stroke="none" 
	d="
M233.882294,127.742134 
	C233.786255,119.795502 228.873581,114.550179 223.808151,109.244789 
	C212.020142,96.898338 187.555191,98.200562 176.787582,109.676895 
	C162.722519,124.667732 164.121414,147.053741 181.558578,159.246140 
	C188.639359,164.197159 196.544144,164.276978 204.266418,165.967361 
	C211.017075,167.445068 216.353317,172.600800 217.002121,178.064423 
	C217.860245,185.290665 214.466660,192.355209 207.997391,195.229492 
	C205.105865,196.514175 201.603012,196.984894 198.398239,196.912354 
	C175.748886,196.399643 157.541580,186.159439 145.733917,167.616348 
	C131.916733,145.917404 130.376801,122.751404 144.574677,99.668076 
	C153.884415,84.532043 167.295013,74.858589 183.853897,70.481873 
	C195.073059,67.516502 207.014771,67.982559 218.702667,70.796608 
	C228.881851,73.247421 237.826019,78.032852 245.186417,84.972466 
	C256.643188,95.774239 264.556213,108.881996 266.054688,125.988144 
	C266.378967,137.105301 266.958618,147.329803 266.929169,157.552536 
	C266.879547,174.743088 266.442841,191.932495 266.169006,209.122391 
	C264.558197,221.892532 254.805161,233.271820 242.001511,235.950867 
	C240.900497,236.181244 239.848083,236.643936 237.920044,237.039185 
	C223.681885,237.104263 210.296783,237.128860 196.911682,237.153442 
	C192.094757,239.055756 186.931366,240.368729 182.520477,242.961731 
	C162.722061,254.600555 162.709488,282.188660 180.596695,295.465210 
	C199.009338,309.131744 221.909637,301.340118 231.389038,283.938843 
	C233.584122,279.909271 234.730347,274.844818 234.808517,270.230255 
	C234.937698,262.604065 238.558548,258.057312 244.969910,255.023331 
	C251.418076,251.971970 257.404327,254.498947 261.939941,258.360016 
	C264.766876,260.766510 266.814453,265.983612 266.540070,269.744476 
	C265.965271,277.623169 264.485718,285.684967 261.799377,293.099762 
	C258.144226,303.188599 251.599609,311.368927 243.218475,318.616425 
	C227.996719,331.779327 210.299026,335.197327 191.387100,333.608307 
	C179.844376,332.638458 169.159058,327.814728 159.994598,320.369354 
	C149.607574,311.930725 141.690353,301.687042 137.913025,288.658691 
	C131.500397,266.540985 135.410889,246.590576 150.428665,228.868637 
	C162.445557,214.687912 177.714569,207.267105 197.018204,205.960373 
	C207.025162,205.976273 216.131393,206.034592 225.236404,205.954559 
	C226.543457,205.943085 227.844635,205.264221 229.148529,204.894226 
	C230.656937,203.848694 232.165359,202.803131 234.200470,201.274353 
	C234.818405,177.095734 234.918655,153.400375 234.953674,129.704895 
	C234.954636,129.051178 234.255142,128.396408 233.882294,127.742134 
z"/>
<path fill="#5AC582" opacity="1.000000" stroke="none" 
	d="
M266.546265,208.981140 
	C266.442841,191.932495 266.879547,174.743088 266.929169,157.552536 
	C266.958618,147.329803 266.378967,137.105301 266.130432,126.406097 
	C266.794006,127.470802 267.921631,129.008606 267.928772,130.551590 
	C268.042969,155.279755 268.031586,180.008652 267.971252,204.737183 
	C267.967896,206.105591 267.288361,207.472351 266.546265,208.981140 
z"/>
<path fill="#B0FFCA" opacity="1.000000" stroke="none" 
	d="
M233.864166,128.231003 
	C234.255142,128.396408 234.954636,129.051178 234.953674,129.704895 
	C234.918655,153.400375 234.818405,177.095734 234.306335,200.972855 
	C233.872330,177.009689 233.859192,152.864777 233.864166,128.231003 
z"/>
<path fill="#72D297" opacity="1.000000" stroke="none" 
	d="
M197.208603,237.464600 
	C210.296783,237.128860 223.681885,237.104263 237.539154,237.133331 
	C235.587875,237.468307 233.164597,237.988251 230.740967,237.990005 
	C219.662537,237.998047 208.584015,237.860809 197.208603,237.464600 
z"/>
<path fill="#C0FED5" opacity="1.000000" stroke="none" 
	d="
M228.668335,204.911301 
	C227.844635,205.264221 226.543457,205.943085 225.236404,205.954559 
	C216.131393,206.034592 207.025162,205.976273 197.448654,205.891846 
	C200.650986,205.531738 204.320297,205.067551 207.997742,204.990280 
	C214.725342,204.848969 221.457748,204.936371 228.668335,204.911301 
z"/>
</svg>