<?xml version="1.0" encoding="UTF-8" standalone="no" ?>
<!DOCTYPE svg PUBLIC "-//W3C//DTD SVG 1.1//EN" "http://www.w3.org/Graphics/SVG/1.1/DTD/svg11.dtd">
<svg xmlns="http://www.w3.org/2000/svg" xmlns:xlink="http://www.w3.org/1999/xlink" version="1.1" width="1080" height="1080" viewBox="0 0 1080 1080" xml:space="preserve">
<desc>Created with Fabric.js 5.2.4</desc>
<defs>
</defs>
<g transform="matrix(1 0 0 1 540 540)" id="c2148602-d5ba-43ec-a749-de8e1c5cc805"  >
<rect style="stroke: none; stroke-width: 1; stroke-dasharray: none; stroke-linecap: butt; stroke-dashoffset: 0; stroke-linejoin: miter; stroke-miterlimit: 4; fill: rgb(255,255,255); fill-rule: nonzero; opacity: 1; visibility: hidden;" vector-effect="non-scaling-stroke"  x="-540" y="-540" rx="0" ry="0" width="1080" height="1080" />
</g>
<g transform="matrix(1 0 0 1 540 540)" id="799b66b8-dcf4-465b-ba05-7df25392e6d8"  >
</g>
<g transform="matrix(3.63 0 0 3.63 539.02 540.81)"  >
<g style="" vector-effect="non-scaling-stroke"   >
		<g transform="matrix(1 0 0 1 0 0)"  >
<path style="stroke: none; stroke-width: 1; stroke-dasharray: none; stroke-linecap: butt; stroke-dashoffset: 0; stroke-linejoin: miter; stroke-miterlimit: 4; fill: rgb(250,251,251); fill-rule: evenodd; opacity: 1;" vector-effect="non-scaling-stroke"  transform=" translate(-300, -150)" d="M 150 150 L 150 300 L 300 300 L 450 300 L 450 150 L 450 0 L 300 0 L 150 0 L 150 150 M 278.625 39.554 C 234.044 48.412 198.955 83.055 189.986 127.066 C 187.504 139.249 187.3 159.599 189.548 170.792 C 192.763 186.796 198.824 201.078 208.125 214.568 C 214.029 223.132 228.172 237.095 236.877 242.955 C 246.165 249.207 260.534 255.719 271.723 258.748 C 280.642 261.162 283.123 261.395 300 261.395 C 316.877 261.395 319.358 261.162 328.277 258.748 C 339.466 255.719 353.835 249.207 363.123 242.955 C 371.911 237.038 385.981 223.113 392.072 214.302 C 398.89 204.439 405.353 190.513 408.713 178.442 C 411.278 169.226 411.48 167.149 411.48 150 C 411.48 132.851 411.278 130.774 408.713 121.558 C 403.067 101.275 393.015 84.213 378.251 69.851 C 361.573 53.627 343.542 44.118 320.792 39.548 C 311.244 37.63 288.291 37.633 278.625 39.554 M 285.92 71.285 C 278.097 74.585 273.239 78.576 268.92 85.251 C 264.399 92.239 262.569 99.306 263.272 107.06 C 264.834 124.294 279.142 137.963 296.538 138.842 C 303.487 139.193 303.715 139.127 306.327 136.024 C 309.235 132.567 309.639 130.068 307.837 126.684 C 306.209 123.628 303.922 122.07 301 122.026 C 288.671 121.842 279.116 110.712 282.022 99.92 C 285.278 87.825 300.501 82.806 310.589 90.5 C 316.093 94.698 316.713 97.434 317.269 120 C 317.611 133.908 317.408 141.625 316.637 144 L 315.5 147.5 L 303 148.031 C 292.299 148.486 289.708 148.935 285 151.156 C 276.873 154.99 271.558 160.122 267.792 167.771 C 264.807 173.835 264.5 175.299 264.5 183.479 C 264.5 191.33 264.862 193.238 267.294 198.19 C 273.339 210.5 286.065 218.223 300.214 218.168 C 310.951 218.125 317.828 215.261 325.579 207.603 C 332.756 200.511 336 193.294 336 184.415 C 336 179.741 335.599 178.532 333.354 176.452 C 329.588 172.962 324.699 173.147 320.923 176.923 C 318.88 178.966 317.993 180.848 317.978 183.173 C 317.916 192.535 309.941 200.453 300.627 200.399 C 283.927 200.303 275.923 181.53 287.95 170.664 C 292.419 166.626 293.718 166.333 310.937 165.476 C 318.366 165.107 324.448 164.303 326.039 163.48 C 330.059 161.401 334.822 155.467 335.539 151.644 C 335.89 149.774 336.022 136.602 335.833 122.372 L 335.49 96.5 L 332.621 90.278 C 329.231 82.926 321.283 74.912 314.251 71.756 C 310.845 70.227 306.952 69.525 300.5 69.277 C 292.806 68.981 290.69 69.273 285.92 71.285" stroke-linecap="round" />
</g>
		<g transform="matrix(1 0 0 1 -0.27 -0.25)"  >
<path style="stroke: none; stroke-width: 1; stroke-dasharray: none; stroke-linecap: butt; stroke-dashoffset: 0; stroke-linejoin: miter; stroke-miterlimit: 4; fill: rgb(27,158,73); fill-rule: evenodd; opacity: 1;" vector-effect="non-scaling-stroke"  transform=" translate(-299.73, -149.75)" d="M 278.625 39.554 C 234.044 48.412 198.955 83.055 189.986 127.066 C 187.504 139.249 187.3 159.599 189.548 170.792 C 192.763 186.796 198.824 201.078 208.125 214.568 C 214.029 223.132 228.172 237.095 236.877 242.955 C 246.165 249.207 260.534 255.719 271.723 258.748 C 280.642 261.162 283.123 261.395 300 261.395 C 316.877 261.395 319.358 261.162 328.277 258.748 C 339.466 255.719 353.835 249.207 363.123 242.955 C 371.911 237.038 385.981 223.113 392.072 214.302 C 398.89 204.439 405.353 190.513 408.713 178.442 C 411.278 169.226 411.48 167.149 411.48 150 C 411.48 132.851 411.278 130.774 408.713 121.558 C 403.067 101.275 393.015 84.213 378.251 69.851 C 361.573 53.627 343.542 44.118 320.792 39.548 C 311.244 37.63 288.291 37.633 278.625 39.554 M 285.92 71.285 C 278.097 74.585 273.239 78.576 268.92 85.251 C 264.399 92.239 262.569 99.306 263.272 107.06 C 264.834 124.294 279.142 137.963 296.538 138.842 C 303.487 139.193 303.715 139.127 306.327 136.024 C 309.235 132.567 309.639 130.068 307.837 126.684 C 306.209 123.628 303.922 122.07 301 122.026 C 288.671 121.842 279.116 110.712 282.022 99.92 C 285.278 87.825 300.501 82.806 310.589 90.5 C 316.093 94.698 316.713 97.434 317.269 120 C 317.611 133.908 317.408 141.625 316.637 144 L 315.5 147.5 L 303 148.031 C 292.299 148.486 289.708 148.935 285 151.156 C 276.873 154.99 271.558 160.122 267.792 167.771 C 264.807 173.835 264.5 175.299 264.5 183.479 C 264.5 191.33 264.862 193.238 267.294 198.19 C 273.339 210.5 286.065 218.223 300.214 218.168 C 310.951 218.125 317.828 215.261 325.579 207.603 C 332.756 200.511 336 193.294 336 184.415 C 336 179.741 335.599 178.532 333.354 176.452 C 329.588 172.962 324.699 173.147 320.923 176.923 C 318.88 178.966 317.993 180.848 317.978 183.173 C 317.916 192.535 309.941 200.453 300.627 200.399 C 283.927 200.303 275.923 181.53 287.95 170.664 C 292.419 166.626 293.718 166.333 310.937 165.476 C 318.366 165.107 324.448 164.303 326.039 163.48 C 330.059 161.401 334.822 155.467 335.539 151.644 C 335.89 149.774 336.022 136.602 335.833 122.372 L 335.49 96.5 L 332.621 90.278 C 329.231 82.926 321.283 74.912 314.251 71.756 C 310.845 70.227 306.952 69.525 300.5 69.277 C 292.806 68.981 290.69 69.273 285.92 71.285" stroke-linecap="round" />
</g>
</g>
</g>
</svg>