<?xml version="1.0" encoding="UTF-8"?>
<svg width="164px" height="30px" viewBox="0 0 164 30" version="1.1" xmlns="http://www.w3.org/2000/svg" xmlns:xlink="http://www.w3.org/1999/xlink">
    <!-- Generator: Sketch 51.2 (57519) - http://www.bohemiancoding.com/sketch -->
    <title>LOGO New</title>
    <desc>Created with Sketch.</desc>
    <defs></defs>
    <g id="Website" stroke="none" stroke-width="1" fill="none" fill-rule="evenodd">
        <g id="Landing-Page-September" transform="translate(-101.000000, -33.000000)">
            <g id="LOGO-New" transform="translate(101.000000, 33.000000)">
                <path d="M19.8093304,4.13511991 C19.8273645,4.14553906 21.604863,5.16828781 25.1097996,7.18494324 L25.3976825,7.34881446 C25.6380366,7.48725199 25.8329354,7.68380302 25.9675611,7.91945184 C26.1016007,8.15471684 26.1713353,8.42239815 26.1690822,8.69027564 L26.1701866,15.1811806 C26.1702411,15.5016676 25.8235657,15.7022281 25.5457611,15.5424265 L23.2952637,14.247872 C23.1660229,14.1735288 23.0863558,14.0357946 23.0863558,13.886697 L23.0863558,9.56499921 L18.3447573,6.83713464 C18.3128044,6.8213748 18.2109948,6.76338837 17.9845389,6.63281319 L13.4502696,4.0211809 L8.72425272,6.73803377 C8.66639189,6.77591694 8.66639189,6.77591694 8.63172905,6.79673562 L8.3453311,6.96168278 L3.81458249,9.56514229 L3.81458249,20.6520427 L8.55735414,23.3803603 C8.57880385,23.3910435 8.65888334,23.4367188 8.91322028,23.5825819 L9.91687132,24.1500073 L10.0836362,24.2462669 C10.2125735,24.3206918 10.2920054,24.4582561 10.2920054,24.6071315 L10.2920054,27.1844143 C10.2920054,27.5049151 9.94526884,27.7054149 9.66749144,27.5455383 L9.17470852,27.2619045 L7.38267086,26.2453689 L7.09513738,26.083948 C7.0755977,26.0729119 5.35413298,25.0824558 1.79044933,23.0318729 L1.50367047,22.8682007 C1.26328556,22.7301127 1.06792121,22.5332865 0.933343353,22.2978155 C0.798963949,22.0618641 0.729227442,21.7942721 0.73185611,21.5270698 L0.730475596,15.1086634 L0.730475596,8.67989549 C0.730475596,8.3896859 0.813386295,8.1088271 0.965130128,7.86776169 C1.11698467,7.62309178 1.33537419,7.42569925 1.56947352,7.31237869 L6.80425972,4.30172024 L7.08774047,4.13656822 C7.15167546,4.10000858 7.15167546,4.10000858 7.37685907,3.97235398 L12.3922813,1.09079645 L12.6816563,0.920173443 C12.9402313,0.771942392 13.2306625,0.702853854 13.5230317,0.716409348 C13.8122899,0.730381764 14.0931638,0.82532341 14.3015013,0.971611929 L19.520164,3.97274775 L19.8093304,4.13511991 Z M23.0863558,18.6155921 L23.0863558,17.0833608 C23.0863558,16.7631945 23.432441,16.5626537 23.7102168,16.7218617 L25.9607142,18.0117407 C26.0902728,18.0859975 26.1701866,18.2239096 26.1701866,18.3732398 L26.1701866,20.8905666 C26.1701866,20.9996371 26.1274186,21.1043592 26.0510655,21.1822474 L24.9692166,22.2823051 C24.6772018,22.6537282 24.2442555,22.8520265 23.8390153,22.6197482 L15.0429613,17.5456185 L15.0417911,27.1678262 C15.0629502,27.4137235 14.9621738,27.6567154 14.7655491,27.8143739 C14.760969,27.8180463 14.2418905,28.2356179 13.2083135,29.0670886 C13.0709857,29.1937025 12.8906873,29.2657041 12.7000272,29.2657041 C12.2874924,29.2657041 11.9523157,28.9318303 11.9523157,28.5192352 L11.9536706,15.768811 L10.2565406,14.7926967 L9.37747353,15.296981 C9.3547175,15.3128483 9.31394492,15.3363293 8.65631042,15.7140884 C8.28738603,15.9288405 7.82729217,15.8186818 7.6159334,15.4559491 C7.6128491,15.4506558 7.48050628,15.223119 7.21890495,14.7733385 L6.82542972,14.0980917 C6.60934258,13.7271339 6.7211254,13.2668566 7.08644087,13.0566482 C7.09347893,13.0525984 7.32398569,12.9209066 7.77796117,12.6615726 L9.49284887,11.6793179 L9.82663041,11.4900045 C10.0625662,11.3229507 10.3769458,11.3055337 10.6333789,11.4528107 L11.025085,11.6798915 L23.0863558,18.6155921 Z" id="Fills" fill="#0EBAC5" fill-rule="nonzero"></path>
                <path d="M33.2690384,22.410011 C33.1403755,22.410011 33.0277263,22.3618812 32.9310911,22.2658966 C32.8347319,22.169637 32.7861382,22.0574257 32.7861382,21.9292629 L32.7861382,9.42706271 C32.7861382,9.28624862 32.8347319,9.17073707 32.9310911,9.08107811 C33.0277263,8.99114411 33.1403755,8.94631463 33.2690384,8.94631463 L35.9723412,8.94631463 C36.1139809,8.94631463 36.2296671,8.99114411 36.3199521,9.08107811 C36.4099609,9.17073707 36.4549653,9.28624862 36.4549653,9.42706271 L36.4549653,19.390484 L42.2478358,19.390484 C42.3891994,19.390484 42.508475,19.4383388 42.6048341,19.5345985 C42.7014694,19.6308581 42.749787,19.7493949 42.749787,19.890484 L42.749787,21.9292629 C42.749787,22.070352 42.7014694,22.1858636 42.6048341,22.2755226 C42.508475,22.3651815 42.3891994,22.410011 42.2478358,22.410011 L33.2690384,22.410011 Z M43.6186762,22.410011 C43.5156906,22.410011 43.4220924,22.3684818 43.33871,22.2848735 C43.2547754,22.2015402 43.2130841,22.1085809 43.2130841,22.0059956 C43.2130841,21.9292629 43.2197106,21.8715072 43.2324112,21.8330033 L47.7314734,9.50407041 C47.8601364,9.13223322 48.1174623,8.94631463 48.5037273,8.94631463 L51.5159868,8.94631463 C51.9019757,8.94631463 52.1595777,9.13223322 52.2882407,9.50407041 L56.7873029,21.8330033 C56.8002797,21.8715072 56.80663,21.9292629 56.80663,22.0059956 C56.80663,22.1085809 56.7646627,22.2015402 56.6810041,22.2848735 C56.5973456,22.3684818 56.5040235,22.410011 56.4010379,22.410011 L53.8907296,22.410011 C53.582049,22.410011 53.363101,22.2689219 53.2344381,21.9867437 L52.5392163,20.1212321 L47.4804978,20.1212321 L46.785276,21.9867437 C46.6566131,22.2689219 46.4376652,22.410011 46.1287084,22.410011 L43.6186762,22.410011 Z M48.2914058,17.2361936 L51.7283083,17.2361936 L50.0098571,12.3313531 L48.2914058,17.2361936 Z M58.7760569,22.410011 C58.6344172,22.410011 58.5154177,22.3651815 58.4187824,22.2755226 C58.3224233,22.1858636 58.2741056,22.070352 58.2741056,21.9292629 L58.2741056,9.44631463 C58.2741056,9.30550055 58.3224233,9.18668867 58.4187824,9.09070407 C58.5154177,8.99444444 58.6344172,8.94631463 58.7760569,8.94631463 L60.9580813,8.94631463 C61.2797387,8.94631463 61.5116634,9.08740374 61.653027,9.36930693 L64.9742433,15.2933993 L68.3147866,9.36930693 C68.4561502,9.08740374 68.6880749,8.94631463 69.0097323,8.94631463 L71.1917568,8.94631463 C71.3333965,8.94631463 71.4523959,8.99444444 71.5490312,9.09070407 C71.6453904,9.18668867 71.693708,9.30550055 71.693708,9.44631463 L71.693708,21.9292629 C71.693708,22.070352 71.6453904,22.1858636 71.5490312,22.2755226 C71.4523959,22.3651815 71.3333965,22.410011 71.1917568,22.410011 L68.7394296,22.410011 C68.6107667,22.410011 68.4981176,22.3618812 68.4014823,22.2658966 C68.3051231,22.169637 68.2568055,22.0574257 68.2568055,21.9292629 L68.2568055,14.9278878 L66.1714163,18.7364686 C66.0040992,19.0312981 65.778801,19.1787129 65.4955216,19.1787129 L64.452965,19.1787129 C64.195363,19.1787129 63.9700647,19.0312981 63.7770703,18.7364686 L61.7110082,14.9278878 L61.7110082,21.9292629 C61.7110082,22.070352 61.6626905,22.1858636 61.5663313,22.2755226 C61.4696961,22.3651815 61.3506966,22.410011 61.2090569,22.410011 L58.7760569,22.410011 Z M74.8023267,22.410011 C74.6736637,22.410011 74.5610146,22.3618812 74.4646554,22.2658966 C74.3680202,22.169637 74.3197025,22.0574257 74.3197025,21.9292629 L74.3197025,9.44631463 C74.3197025,9.30550055 74.3647069,9.18668867 74.4547158,9.09070407 C74.5450008,8.99444444 74.6609631,8.94631463 74.8023267,8.94631463 L80.7688646,8.94631463 C82.4036573,8.94631463 83.6201573,9.27964796 84.4183647,9.94658966 C85.2162959,10.6132563 85.6155377,11.5621012 85.6155377,12.7931243 C85.6155377,13.4086359 85.4512577,13.9408141 85.12325,14.3893839 C84.7949661,14.8382288 84.4310653,15.1652365 84.0320997,15.370407 C84.5600044,15.6011551 85.0039744,15.9826183 85.364562,16.5147965 C85.7248736,17.0469747 85.9051674,17.6465347 85.9051674,18.3132013 C85.9051674,19.6080308 85.4769351,20.6149065 84.6210226,21.3330033 C83.7651102,22.0508251 82.5389467,22.410011 80.9425319,22.410011 L74.8023267,22.410011 Z M80.3632725,14.2741474 C80.8395464,14.2741474 81.2064843,14.1459846 81.4640863,13.8893839 C81.7214122,13.6327833 81.8503513,13.299725 81.8503513,12.8893839 C81.8503513,12.4916942 81.7247255,12.1679868 81.4737498,11.9179868 C81.2227742,11.6677118 80.8525231,11.5428493 80.3632725,11.5428493 L77.9498756,11.5428493 L77.9498756,14.2741474 L80.3632725,14.2741474 Z M80.537216,19.8134763 C81.0391672,19.8134763 81.4287454,19.6690869 81.7053984,19.3805831 C81.9820514,19.0923542 82.120654,18.7364686 82.120654,18.3132013 C82.120654,17.8772827 81.9790143,17.5150715 81.6957349,17.2262926 C81.4124555,16.9380638 81.0264666,16.7936744 80.537216,16.7936744 L77.9498756,16.7936744 L77.9498756,19.8134763 L80.537216,19.8134763 Z M88.4538537,22.410011 C88.3249146,22.410011 88.2125416,22.3618812 88.1159063,22.2658966 C88.0192711,22.169637 87.9709534,22.0574257 87.9709534,21.9292629 L87.9709534,9.44631463 C87.9709534,9.30550055 88.0162339,9.18668867 88.1062428,9.09070407 C88.1962517,8.99444444 88.312214,8.94631463 88.4538537,8.94631463 L93.5321753,8.94631463 C95.4372707,8.94631463 96.917447,9.39818482 97.9732564,10.3024752 C99.0285136,11.2062156 99.5823718,12.5046205 99.6334504,14.1971397 C99.6464271,14.5689769 99.6530536,15.0626513 99.6530536,15.6781628 C99.6530536,16.2936744 99.6464271,16.7807481 99.6334504,17.139934 C99.5047874,20.6531353 97.5030568,22.410011 93.6285345,22.410011 L88.4538537,22.410011 Z M93.5321753,19.5249725 C94.3428072,19.5249725 94.9413937,19.3327283 95.3279348,18.9479648 C95.7139237,18.5634763 95.9198949,17.9476898 95.9455723,17.1014301 C95.9715257,16.729593 95.9842264,16.2488449 95.9842264,15.6589109 C95.9842264,15.0689769 95.9715257,14.5945545 95.9455723,14.2356436 C95.9198949,13.4149615 95.6976338,12.8090759 95.2796172,12.4179868 C94.8610484,12.0268977 94.2467242,11.8313531 93.4355401,11.8313531 L91.6011265,11.8313531 L91.6011265,19.5249725 L93.5321753,19.5249725 Z M101.101202,22.410011 C100.998217,22.410011 100.904894,22.3684818 100.821236,22.2848735 C100.737301,22.2015402 100.69561,22.1085809 100.69561,22.0059956 C100.69561,21.9292629 100.70196,21.8715072 100.714937,21.8330033 L105.213723,9.50407041 C105.342662,9.13223322 105.600264,8.94631463 105.986253,8.94631463 L108.998513,8.94631463 C109.384778,8.94631463 109.642104,9.13223322 109.770767,9.50407041 L114.269829,21.8330033 C114.282806,21.8715072 114.28888,21.9292629 114.28888,22.0059956 C114.28888,22.1085809 114.247189,22.2015402 114.16353,22.2848735 C114.080148,22.3684818 113.986826,22.410011 113.883564,22.410011 L111.373532,22.410011 C111.064575,22.410011 110.845627,22.2689219 110.716964,21.9867437 L110.021742,20.1212321 L104.962748,20.1212321 L104.267526,21.9867437 C104.139139,22.2689219 103.920467,22.410011 103.61151,22.410011 L101.101202,22.410011 Z M105.773932,17.2361936 L109.210834,17.2361936 L107.492383,12.3313531 L105.773932,17.2361936 Z" id="Lambda" fill="#0EBAC5"></path>
                <path d="M119.232105,22.410011 C119.090466,22.410011 118.971742,22.3651815 118.874831,22.2755226 C118.778196,22.1858636 118.730154,22.070352 118.730154,21.9292629 L118.730154,12.0813531 L115.331906,12.0813531 C115.190266,12.0813531 115.071267,12.0365237 114.974631,11.9468647 C114.877996,11.8569307 114.829678,11.7416942 114.829678,11.6006051 L114.829678,9.44631463 C114.829678,9.30550055 114.877996,9.18668867 114.974631,9.09070407 C115.071267,8.99444444 115.190266,8.94631463 115.331906,8.94631463 L125.816557,8.94631463 C125.95792,8.94631463 126.077196,8.99444444 126.173831,9.09070407 C126.27019,9.18668867 126.318508,9.30550055 126.318508,9.44631463 L126.318508,11.6006051 C126.318508,11.7416942 126.27019,11.8569307 126.173831,11.9468647 C126.077196,12.0365237 125.95792,12.0813531 125.816557,12.0813531 L122.418032,12.0813531 L122.418032,21.9292629 C122.418032,22.070352 122.369715,22.1858636 122.273355,22.2755226 C122.17672,22.3651815 122.057721,22.410011 121.916357,22.410011 L119.232105,22.410011 Z M128.500256,22.410011 C128.37187,22.410011 128.258944,22.3618812 128.162585,22.2658966 C128.06595,22.169637 128.017632,22.0574257 128.017632,21.9292629 L128.017632,9.44631463 C128.017632,9.30550055 128.062637,9.18668867 128.152922,9.09070407 C128.243207,8.99444444 128.358893,8.94631463 128.500256,8.94631463 L137.614067,8.94631463 C137.755707,8.94631463 137.874706,8.99444444 137.971341,9.09070407 C138.067977,9.18668867 138.116294,9.30550055 138.116294,9.44631463 L138.116294,11.3506051 C138.116294,11.4916942 138.067977,11.6069307 137.971341,11.6965897 C137.874706,11.7865237 137.755707,11.8313531 137.614067,11.8313531 L131.512792,11.8313531 L131.512792,14.2741474 L137.189424,14.2741474 C137.331064,14.2741474 137.449787,14.3222772 137.546698,14.4182618 C137.643334,14.5145215 137.691375,14.6330583 137.691375,14.7741474 L137.691375,16.5244224 C137.691375,16.6655116 137.643334,16.7840484 137.546698,16.880308 C137.449787,16.9762926 137.331064,17.0246975 137.189424,17.0246975 L131.512792,17.0246975 L131.512792,19.5249725 L137.768684,19.5249725 C137.910047,19.5249725 138.029323,19.5731023 138.125958,19.6690869 C138.222317,19.7653465 138.270635,19.8838834 138.270635,20.0249725 L138.270635,21.9292629 C138.270635,22.070352 138.222317,22.1858636 138.125958,22.2755226 C138.029323,22.3651815 137.910047,22.410011 137.768684,22.410011 L128.500256,22.410011 Z M145.530705,22.6022552 C144.282453,22.6022552 143.220293,22.4229373 142.344778,22.0637514 C141.469538,21.7048405 140.80662,21.230418 140.356024,20.640209 C139.905427,20.0508251 139.667429,19.4094609 139.641751,18.7169417 C139.641751,18.6017052 139.683442,18.5054455 139.767101,18.4284378 C139.85076,18.3517052 139.950432,18.3132013 140.066394,18.3132013 L142.634408,18.3132013 C142.788748,18.3132013 142.914374,18.3387789 143.011009,18.390209 C143.107644,18.4413641 143.213667,18.5310231 143.329629,18.6591859 C143.496946,18.9669417 143.757586,19.220242 144.111547,19.4190869 C144.465784,19.6179318 144.938469,19.7172167 145.530705,19.7172167 C146.226203,19.7172167 146.760182,19.6113311 147.13347,19.40011 C147.506758,19.1883388 147.693402,18.8968097 147.693402,18.5246975 C147.693402,18.2557206 147.596767,18.0343234 147.403772,17.8613311 C147.210778,17.6880638 146.901821,17.5340484 146.477178,17.39956 C146.052259,17.2650715 145.440696,17.1143564 144.642489,16.9476898 C143.08528,16.639934 141.920135,16.1718372 141.147605,15.5433993 C140.375351,14.9152365 139.989362,14.0175468 139.989362,12.8508801 C139.989362,12.0557756 140.211071,11.3473047 140.655317,10.7254675 C141.099287,10.1033553 141.730178,9.61958196 142.547436,9.27332233 C143.36497,8.92706271 144.314481,8.75407041 145.395691,8.75407041 C146.528257,8.75407041 147.510071,8.94961496 148.340306,9.34042904 C149.170541,9.73179318 149.807782,10.2188669 150.252028,10.8022002 C150.695998,11.3858086 150.93096,11.959516 150.956637,12.5238724 C150.956637,12.6391089 150.917983,12.7386689 150.840675,12.8220022 C150.763367,12.9053355 150.667008,12.9468647 150.551321,12.9468647 L147.848019,12.9468647 C147.564739,12.9468647 147.345791,12.8316282 147.191451,12.6006051 C147.113867,12.3313531 146.914798,12.1039054 146.592864,11.9179868 C146.271207,11.7320682 145.871965,11.6391089 145.395691,11.6391089 C144.855086,11.6391089 144.436517,11.7353685 144.140537,11.9276128 C143.844557,12.119857 143.696291,12.4020352 143.696291,12.7738724 C143.696291,13.1457096 143.889838,13.4375138 144.275827,13.6490099 C144.662092,13.8607811 145.382991,14.0753025 146.438248,14.2933993 C147.648398,14.5112211 148.610609,14.7837734 149.324882,15.1107811 C150.039431,15.4375138 150.567059,15.8610561 150.90832,16.380033 C151.24958,16.89956 151.419934,17.5568757 151.419934,18.3517052 C151.419934,19.2235424 151.168959,19.980143 150.667008,20.6212321 C150.165056,21.2623212 149.469835,21.7526953 148.581618,22.0926293 C147.693402,22.4325633 146.676247,22.6022552 145.530705,22.6022552 Z M156.749232,22.410011 C156.607592,22.410011 156.488316,22.3651815 156.391957,22.2755226 C156.295322,22.1858636 156.247004,22.070352 156.247004,21.9292629 L156.247004,12.0813531 L152.849032,12.0813531 C152.707116,12.0813531 152.588393,12.0365237 152.491758,11.9468647 C152.395122,11.8569307 152.347081,11.7416942 152.347081,11.6006051 L152.347081,9.44631463 C152.347081,9.30550055 152.395122,9.18668867 152.491758,9.09070407 C152.588393,8.99444444 152.707116,8.94631463 152.849032,8.94631463 L163.333407,8.94631463 C163.475047,8.94631463 163.594322,8.99444444 163.690681,9.09070407 C163.787317,9.18668867 163.835634,9.30550055 163.835634,9.44631463 L163.835634,11.6006051 C163.835634,11.7416942 163.787317,11.8569307 163.690681,11.9468647 C163.594322,12.0365237 163.475047,12.0813531 163.333407,12.0813531 L159.935159,12.0813531 L159.935159,21.9292629 C159.935159,22.070352 159.886841,22.1858636 159.790206,22.2755226 C159.693847,22.3651815 159.574847,22.410011 159.433483,22.410011 L156.749232,22.410011 Z" id="Test" fill="#FFFFFF"></path>
            </g>
        </g>
    </g>
</svg>