<?xml version="1.0" encoding="UTF-8" standalone="no" ?>
<!DOCTYPE svg PUBLIC "-//W3C//DTD SVG 1.1//EN" "http://www.w3.org/Graphics/SVG/1.1/DTD/svg11.dtd">
<svg xmlns="http://www.w3.org/2000/svg" xmlns:xlink="http://www.w3.org/1999/xlink" version="1.1" width="1080" height="1080" viewBox="0 0 1080 1080" xml:space="preserve">
<desc>Created with Fabric.js 5.2.4</desc>
<defs>
</defs>
<g transform="matrix(1 0 0 1 540 540)" id="34153340-7746-453c-ac1d-49e658ebe32a"  >
<rect style="stroke: none; stroke-width: 1; stroke-dasharray: none; stroke-linecap: butt; stroke-dashoffset: 0; stroke-linejoin: miter; stroke-miterlimit: 4; fill: rgb(255,255,255); fill-rule: nonzero; opacity: 1;" vector-effect="non-scaling-stroke"  x="-540" y="-540" rx="0" ry="0" width="1080" height="1080" />
</g>
<g transform="matrix(1 0 0 1 540 540)" id="07077434-8a09-4a8b-93e1-d2260c9a74f8"  >
</g>
<g transform="matrix(1.16 0 0 1.16 540 540)"  >
<g style="" vector-effect="non-scaling-stroke"   >
		<g transform="matrix(1.56 0 0 1.56 110.95 -2.89)"  >
<path style="stroke: none; stroke-width: 1; stroke-dasharray: none; stroke-linecap: butt; stroke-dashoffset: 0; stroke-linejoin: miter; stroke-miterlimit: 4; fill: rgb(112,109,110); fill-rule: nonzero; opacity: 1;" vector-effect="non-scaling-stroke"  transform=" translate(-326.95, -52.79)" d="M 511.873981 49.436472 L 511.873981 40.434383 L 500.695 40.434383 L 500.695 26.4391799 L 500.318725 26.5549246 L 489.818739 29.7673037 L 489.612008 29.8304371 L 489.612008 40.434383 L 473.039474 40.434383 L 473.039474 34.5276905 C 473.039474 31.7770522 473.654716 29.6719845 474.866631 28.2681934 C 476.070499 26.8811141 477.792433 26.1761238 479.987868 26.1761238 C 481.566824 26.1761238 483.201485 26.5481161 484.84605 27.2815783 L 485.258275 27.4654081 L 485.258275 17.9848665 L 485.064542 17.9136867 C 483.530151 17.3621973 481.442414 17.0842863 478.855799 17.0842863 C 475.595141 17.0842863 472.632201 17.7936093 470.048681 19.1998762 C 467.463304 20.608 465.429416 22.6183675 464.005199 25.1746538 C 462.585315 27.7278453 461.864851 30.6765493 461.864851 33.9396828 L 461.864851 40.434383 L 454.080867 40.434383 L 454.080867 49.436472 L 461.864851 49.436472 L 461.864851 87.3604952 L 473.039474 87.3604952 L 473.039474 49.436472 L 489.612008 49.436472 L 489.612008 73.5367427 C 489.612008 83.4623133 494.293787 88.4925648 503.526747 88.4925648 C 505.044426 88.4925648 506.640737 88.3143056 508.27166 87.9658337 C 509.931104 87.6086963 511.061317 87.251559 511.726669 86.8702824 L 511.873981 86.7836286 L 511.873981 77.6979807 L 511.419667 77.998793 C 510.813091 78.4035899 510.057965 78.7334932 509.172265 78.9785996 C 508.282801 79.2286576 507.540054 79.3543056 506.965069 79.3543056 C 504.801795 79.3543056 503.20182 78.7712495 502.208371 77.6212302 C 501.204426 76.4606886 500.69505 74.4305145 500.69505 71.5913656 L 500.69505 49.436472 L 511.873981 49.436472 L 511.873981 49.436472 Z M 429.12619 79.3551721 C 425.070174 79.3551721 421.87265 78.0101818 419.619033 75.3610522 C 417.351799 72.6983056 416.203017 68.9022515 416.203017 64.0793501 C 416.203017 59.1035667 417.351799 55.2090986 419.620271 52.4993114 C 421.875126 49.8074739 425.042321 48.4414391 429.035203 48.4414391 C 432.909865 48.4414391 435.99412 49.7461973 438.203172 52.3216712 C 440.423985 54.9101431 441.550484 58.7736634 441.550484 63.8076286 C 441.550484 68.9034894 440.490832 72.817764 438.401238 75.4359458 C 436.326499 78.03494 433.206344 79.3551721 429.12619 79.3551721 L 429.12619 79.3551721 Z M 429.62383 39.3037988 C 421.885648 39.3037988 415.73942 41.5710329 411.357834 46.0429865 C 406.978723 50.515559 404.757911 56.7044952 404.757911 64.4402012 C 404.757911 71.7872031 406.925493 77.6969903 411.200619 82.0024449 C 415.475745 86.3097563 421.293926 88.4915745 428.49176 88.4915745 C 435.992882 88.4915745 442.016557 86.1927737 446.396905 81.6589246 C 450.776634 77.1294081 452.99559 70.9992727 452.99559 63.4443017 C 452.99559 55.9821741 450.913424 50.028441 446.804797 45.7514584 C 442.694313 41.472619 436.91265 39.3037988 429.62383 39.3037988 L 429.62383 39.3037988 Z M 386.741042 39.3035513 C 381.477444 39.3035513 377.123711 40.6497795 373.797444 43.3044797 C 370.451371 45.9746538 368.754195 49.477323 368.754195 53.7153114 C 368.754195 55.9181741 369.120616 57.8753114 369.8417 59.5347311 C 370.567116 61.2003404 371.689901 62.6660271 373.180965 63.8965106 C 374.661506 65.1170909 376.945452 66.395853 379.973382 67.6962785 C 382.517909 68.7435513 384.416245 69.6298956 385.62197 70.3280774 C 386.800462 71.0120232 387.63729 71.7003017 388.109553 72.3700116 C 388.568199 73.0254855 388.801545 73.922352 388.801545 75.0302824 C 388.801545 78.1826228 386.440849 79.7163946 381.582667 79.7163946 C 379.780887 79.7163946 377.725336 79.3406886 375.473576 78.5985609 C 373.220578 77.8576712 371.11551 76.7924487 369.217792 75.4264139 L 368.754195 75.0940348 L 368.754195 85.8521006 L 368.924408 85.9313269 C 370.505839 86.6610754 372.498876 87.2763172 374.848431 87.7609594 C 377.193653 88.2456015 379.324098 88.4925648 381.175394 88.4925648 C 386.887116 88.4925648 391.486574 87.139528 394.842551 84.469354 C 398.220191 81.7806112 399.932222 78.1956209 399.932222 73.8103211 C 399.932222 70.6474584 399.010597 67.9345764 397.193963 65.7471876 C 395.390326 63.5771296 392.259649 61.5853308 387.892299 59.8244023 C 384.41315 58.4280387 382.184292 57.268735 381.265143 56.3792959 C 380.378798 55.5195667 379.928818 54.3039381 379.928818 52.7645957 C 379.928818 51.3997988 380.484021 50.3067234 381.624756 49.4209981 C 382.774156 48.53094 384.373537 48.0784836 386.380191 48.0784836 C 388.242009 48.0784836 390.147154 48.3724874 392.041158 48.948735 C 393.934543 49.5249826 395.597057 50.2968201 396.985375 51.2413462 L 397.441545 51.5532998 L 397.441545 41.3479613 L 397.266381 41.2724487 C 395.985762 40.7234352 394.297251 40.253648 392.246651 39.8723714 C 390.204098 39.4948085 388.351564 39.3035513 386.741042 39.3035513 L 386.741042 39.3035513 Z M 339.622435 79.3551721 C 335.567657 79.3551721 332.368895 78.0101818 330.115897 75.3610522 C 327.848044 72.6983056 326.701119 68.9034894 326.701119 64.0793501 C 326.701119 59.1035667 327.849282 55.2090986 330.118373 52.4993114 C 332.371371 49.8074739 335.537947 48.4414391 339.532686 48.4414391 C 343.40611 48.4414391 346.490365 49.7461973 348.700036 52.3216712 C 350.920849 54.9101431 352.047348 58.7736634 352.047348 63.8076286 C 352.047348 68.9034894 350.987077 72.817764 348.897483 75.4359458 C 346.822744 78.03494 343.703827 79.3551721 339.622435 79.3551721 L 339.622435 79.3551721 Z M 340.121313 39.3037988 C 332.381274 39.3037988 326.235046 41.5710329 321.855317 46.0429865 C 317.476206 50.515559 315.254156 56.7044952 315.254156 64.4402012 C 315.254156 71.7902979 317.422976 77.6969903 321.698102 82.0024449 C 325.973228 86.3097563 331.790791 88.4915745 338.989243 88.4915745 C 346.488508 88.4915745 352.51404 86.1927737 356.894388 81.6589246 C 361.27288 77.1294081 363.493073 70.9992727 363.493073 63.4443017 C 363.493073 55.9821741 361.410288 50.028441 357.301042 45.7514584 C 353.189321 41.472619 347.408895 39.3037988 340.121313 39.3037988 L 340.121313 39.3037988 Z M 298.291433 48.5606499 L 298.291433 40.434383 L 287.25298 40.434383 L 287.25298 87.3592573 L 298.291433 87.3592573 L 298.291433 63.3555435 C 298.291433 59.2735319 299.216771 55.9206499 301.04269 53.3878839 C 302.845707 50.8854468 305.248493 49.617207 308.181723 49.617207 C 309.175765 49.617207 310.291742 49.7812302 311.500562 50.1055629 C 312.697003 50.4280387 313.563541 50.7777485 314.074798 51.1460271 L 314.538396 51.4821199 L 314.538396 40.3539188 L 314.359518 40.2771683 C 313.331433 39.8401857 311.877506 39.6198375 310.037351 39.6198375 C 307.263812 39.6198375 304.781181 40.5111335 302.655069 42.2658723 C 300.788918 43.8083095 299.439595 45.9232805 298.408415 48.5606499 L 298.291433 48.5606499 L 298.291433 48.5606499 Z M 267.48571 39.3035513 C 262.422035 39.3035513 257.904897 40.3898182 254.062422 42.5301663 C 250.212518 44.6754662 247.235342 47.738677 245.209501 51.633764 C 243.192944 55.5195667 242.169191 60.0583675 242.169191 65.1195667 C 242.169191 69.5531451 243.161996 73.6221586 245.124085 77.2077679 C 247.087412 80.7995667 249.866522 83.6096248 253.384046 85.5587157 C 256.896619 87.5053308 260.956348 88.4925648 265.451203 88.4925648 C 270.696851 88.4925648 275.175613 87.4434352 278.766793 85.3755048 L 278.911629 85.2919458 L 278.911629 75.1794507 L 278.448031 75.5180193 C 276.821416 76.7027002 275.003544 77.6484642 273.047644 78.3299342 C 271.096696 79.0107853 269.317818 79.3549246 267.758669 79.3549246 C 263.427219 79.3549246 259.950545 77.999412 257.426445 75.328 C 254.896774 72.6522553 253.614298 68.8958143 253.614298 64.1682321 C 253.614298 59.41094 254.951861 55.557942 257.587992 52.7144603 C 260.215458 49.8796441 263.69894 48.4418104 267.940642 48.4418104 C 271.568959 48.4418104 275.104433 49.6704371 278.449269 52.0967427 L 278.911629 52.4328356 L 278.911629 41.7775164 L 278.76246 41.6933385 C 277.503505 40.9889671 275.787141 40.4071489 273.655458 39.9658337 C 271.533679 39.5257563 269.458321 39.3035513 267.48571 39.3035513 L 267.48571 39.3035513 Z M 234.566809 40.4345068 L 223.528356 40.4345068 L 223.528356 87.359381 L 234.566809 87.359381 L 234.566809 40.4345068 L 234.566809 40.4345068 Z M 229.160232 20.4441006 C 227.343598 20.4441006 225.759072 21.0624371 224.457408 22.2879691 C 223.150174 23.5172147 222.486654 25.0646035 222.486654 26.8905222 C 222.486654 28.6879691 223.142128 30.2068859 224.436364 31.4033269 C 225.722553 32.5960542 227.312031 33.2007737 229.160232 33.2007737 C 231.007814 33.2007737 232.603482 32.5960542 233.905145 31.4051838 C 235.215474 30.2068859 235.879613 28.6879691 235.879613 26.8905222 C 235.879613 25.1283559 235.233424 23.596441 233.958994 22.3374855 C 232.686422 21.0810058 231.071567 20.4441006 229.160232 20.4441006 L 229.160232 20.4441006 Z M 201.619247 36.972441 L 201.619247 87.3591335 L 212.884237 87.3591335 L 212.884237 21.8810677 L 197.293367 21.8810677 L 177.475649 70.5161161 L 158.244083 21.8810677 L 142.018164 21.8810677 L 142.018164 87.3591335 L 152.60416 87.3591335 L 152.60416 36.9674894 L 152.968106 36.9674894 L 173.276036 87.3591335 L 181.264895 87.3591335 L 201.25592 36.972441 L 201.619247 36.972441 L 201.619247 36.972441 Z" stroke-linecap="round" />
</g>
		<g transform="matrix(1.56 0 0 1.56 -359.33 -44.81)"  >
<path style="stroke: none; stroke-width: 1; stroke-dasharray: none; stroke-linecap: butt; stroke-dashoffset: 0; stroke-linejoin: miter; stroke-miterlimit: 4; fill: rgb(241,81,27); fill-rule: nonzero; opacity: 1;" vector-effect="non-scaling-stroke"  transform=" translate(-25.96, -25.96)" d="M 51.9266538 51.9266538 L 0 51.9266538 L 0 0 L 51.9266538 0 L 51.9266538 51.9266538 L 51.9266538 51.9266538 Z" stroke-linecap="round" />
</g>
		<g transform="matrix(1.56 0 0 1.56 -269.75 -44.81)"  >
<path style="stroke: none; stroke-width: 1; stroke-dasharray: none; stroke-linecap: butt; stroke-dashoffset: 0; stroke-linejoin: miter; stroke-miterlimit: 4; fill: rgb(128,204,40); fill-rule: nonzero; opacity: 1;" vector-effect="non-scaling-stroke"  transform=" translate(-83.3, -25.96)" d="M 109.259884 51.9266538 L 57.3338491 51.9266538 L 57.3338491 0 L 109.259884 0 L 109.259884 51.9266538 L 109.259884 51.9266538 Z" stroke-linecap="round" />
</g>
		<g transform="matrix(1.56 0 0 1.56 -359.33 44.81)"  >
<path style="stroke: none; stroke-width: 1; stroke-dasharray: none; stroke-linecap: butt; stroke-dashoffset: 0; stroke-linejoin: miter; stroke-miterlimit: 4; fill: rgb(0,173,239); fill-rule: nonzero; opacity: 1;" vector-effect="non-scaling-stroke"  transform=" translate(-25.96, -83.32)" d="M 51.9254159 109.280309 L 0 109.280309 L 0 57.3536557 L 51.9254159 57.3536557 L 51.9254159 109.280309 L 51.9254159 109.280309 Z" stroke-linecap="round" />
</g>
		<g transform="matrix(1.56 0 0 1.56 -269.75 44.81)"  >
<path style="stroke: none; stroke-width: 1; stroke-dasharray: none; stroke-linecap: butt; stroke-dashoffset: 0; stroke-linejoin: miter; stroke-miterlimit: 4; fill: rgb(251,188,9); fill-rule: nonzero; opacity: 1;" vector-effect="non-scaling-stroke"  transform=" translate(-83.3, -83.32)" d="M 109.259884 109.280309 L 57.3338491 109.280309 L 57.3338491 57.3536557 L 109.259884 57.3536557 L 109.259884 109.280309 L 109.259884 109.280309 Z" stroke-linecap="round" />
</g>
</g>
</g>
</svg>