<?xml version="1.0" encoding="UTF-8" standalone="no" ?>
<!DOCTYPE svg PUBLIC "-//W3C//DTD SVG 1.1//EN" "http://www.w3.org/Graphics/SVG/1.1/DTD/svg11.dtd">
<svg xmlns="http://www.w3.org/2000/svg" xmlns:xlink="http://www.w3.org/1999/xlink" version="1.1" width="1080" height="1080" viewBox="0 0 1080 1080" xml:space="preserve">
<desc>Created with Fabric.js 5.2.4</desc>
<defs>
</defs>
<rect x="0" y="0" width="100%" height="100%" fill="transparent"></rect>
<g transform="matrix(1 0 0 1 540 540)" id="0ecf5245-8367-4e27-83fe-90bdcf08a195"  >
<rect style="stroke: none; stroke-width: 1; stroke-dasharray: none; stroke-linecap: butt; stroke-dashoffset: 0; stroke-linejoin: miter; stroke-miterlimit: 4; fill: rgb(255,255,255); fill-rule: nonzero; opacity: 1;" vector-effect="non-scaling-stroke"  x="-540" y="-540" rx="0" ry="0" width="1080" height="1080" />
</g>
<g transform="matrix(1 0 0 1 540 540)" id="6b82f48a-b133-4e53-9399-12a5acafbcf3"  >
</g>
<g transform="matrix(1.85 0 0 1.85 540 540)" id="d2a75e69-8ab3-479b-81e1-9d1697515ac7"  >
<path style="stroke: rgb(0,0,0); stroke-width: 0; stroke-dasharray: none; stroke-linecap: butt; stroke-dashoffset: 0; stroke-linejoin: miter; stroke-miterlimit: 4; fill: rgb(0,0,0); fill-rule: nonzero; opacity: 1;" vector-effect="non-scaling-stroke"  transform=" translate(-256, -82.1)" d="M 0 0 L 512 0 L 512 164.197528 L 0 164.197528 L 0 0 Z M 144.940558 123.833999 L 144.931709 109.152329 L 135.931553 109.152329 L 135.931553 78.2314407 C 135.931553 62.1780659 124.825166 54.8239564 112.674514 54.8239564 C 102.019462 54.8239564 94.3733126 60.3815746 90.6210353 69.3817302 C 87.3200933 59.4789042 78.3022384 54.8239564 68.5675568 54.8239564 C 59.1249157 54.8239564 52.0716965 59.178014 48.0185291 66.3728286 L 48.0185291 56.1779621 L 18.9295307 56.1779621 L 18.9295307 70.8773313 L 28.6642123 70.8773313 L 28.6642123 109.152329 L 19.6640567 109.152329 L 19.6640567 123.851698 L 60.921407 123.851698 L 60.921407 109.152329 L 48.0539279 109.152329 L 48.0539279 85.5767004 C 48.0539279 76.1252096 51.8062052 69.5233256 61.1072509 69.5233256 C 68.7622505 69.5233256 72.6561231 74.0278282 72.6561231 85.7271454 L 72.6561231 123.851698 L 100.975197 123.851698 L 100.975197 109.152329 L 92.0192896 109.152329 L 92.0192896 85.5767004 C 92.0192896 76.1252096 95.7715668 69.5233256 105.072613 69.5233256 C 112.718762 69.5233256 116.621485 74.0278282 116.621485 85.7271454 L 116.621485 123.833999 L 144.940558 123.833999 Z M 187.9944 125.3296 L 187.9944 125.33845 C 209.596543 125.33845 225.198583 111.683346 225.180883 90.0723533 C 225.180883 71.1693717 213.304572 54.8151067 189.020966 54.8151067 C 164.737361 54.8151067 152.737153 71.1693717 152.737153 90.9750238 C 152.737153 112.577167 167.144482 125.3296 187.9944 125.3296 Z M 188.737775 69.6737706 L 188.737775 69.6737706 C 197.897226 69.6737706 205.242486 75.8243194 205.269035 89.4794227 C 205.269035 102.382301 198.667151 110.479786 188.61388 110.479786 C 178.082724 110.479786 172.684401 101.47963 172.684401 89.7803129 C 172.684401 77.0190303 178.834949 69.6737706 188.737775 69.6737706 Z M 295.713076 123.833999 L 299.87244 100.143324 L 284.57129 98.6477228 L 281.420793 109.152329 L 259.553159 109.152329 L 297.075931 66.3728286 L 295.58033 56.1691124 L 236.110276 56.1691124 L 233.712004 79.8774868 L 247.667998 81.3730879 L 250.668049 70.8684815 L 271.818857 70.8684815 L 234.650073 113.630283 L 236.59701 123.833999 L 295.713076 123.833999 Z M 332.315478 80.4704174 L 332.315478 56.1779621 L 312.058491 56.1779621 L 312.058491 80.4704174 L 332.315478 80.4704174 Z M 332.315478 123.833999 L 332.315478 99.5326938 L 312.058491 99.5326938 L 312.058491 123.833999 L 332.315478 123.833999 Z M 342.935131 123.833999 L 362.015107 123.833999 L 391.27225 20.6552243 L 372.218823 20.6552243 L 342.935131 123.833999 Z M 382.245545 123.833999 L 401.325521 123.833999 L 430.564964 20.6552243 L 411.511537 20.6552243 L 382.245545 123.833999 Z M 483.061447 125.3296 L 483.087996 125.33845 C 487.348816 125.284481 491.532002 124.190838 495.274047 122.152554 L 495.123602 111.948838 C 494.199986 112.233842 493.240478 112.385814 492.273995 112.400173 C 489.114649 112.400173 487.619048 111.046167 487.619048 107.143445 L 487.619048 77.7358569 C 487.619048 62.2842624 475.31795 54.7797079 460.760176 54.7797079 C 449.65379 54.7797079 443.653686 56.1691124 431.803924 60.9745052 L 428.803872 78.5234811 L 444.255466 80.178377 L 446.759934 70.5764411 C 449.910431 68.930395 453.060928 68.6295048 457.114096 68.6295048 C 468.070037 68.6295048 468.220482 76.877435 468.220482 83.7802091 L 468.220482 86.0280356 C 464.534588 85.5952956 460.825168 85.3943072 457.114096 85.4262553 C 441.662501 85.4262553 425.609126 89.3201279 425.609126 105.975283 C 425.609126 120.072872 436.724363 125.3296 446.459044 125.3296 C 457.406136 125.3296 464.30891 118.727716 468.211633 111.824942 C 469.114303 120.072872 474.061291 125.3296 483.061447 125.3296 Z M 445.582923 103.727457 L 445.582923 103.727457 C 445.582923 96.3821969 451.583027 94.4352606 458.51235 94.4441103 C 461.773622 94.5168728 465.026102 94.8125528 468.247031 95.3290813 C 467.804546 106.577063 460.450436 111.532901 453.547662 111.532901 C 447.680304 111.532901 445.582923 108.081514 445.582923 103.727457 Z" stroke-linecap="round" />
</g>
</svg>