<?xml version="1.0" encoding="UTF-8" standalone="no" ?>
<!DOCTYPE svg PUBLIC "-//W3C//DTD SVG 1.1//EN" "http://www.w3.org/Graphics/SVG/1.1/DTD/svg11.dtd">
<svg xmlns="http://www.w3.org/2000/svg" xmlns:xlink="http://www.w3.org/1999/xlink" version="1.1" width="1080" height="1080" viewBox="0 0 1080 1080" xml:space="preserve">
<desc>Created with Fabric.js 5.2.4</desc>
<defs>
</defs>
<g transform="matrix(1 0 0 1 540 540)" id="4cde0984-abc6-4bbc-beb2-15d1261fb951"  >
<rect style="stroke: none; stroke-width: 1; stroke-dasharray: none; stroke-linecap: butt; stroke-dashoffset: 0; stroke-linejoin: miter; stroke-miterlimit: 4; fill: rgb(255,255,255); fill-rule: nonzero; opacity: 1;" vector-effect="non-scaling-stroke"  x="-540" y="-540" rx="0" ry="0" width="1080" height="1080" />
</g>
<g transform="matrix(1 0 0 1 540 540)" id="1e7de41b-6507-4ec8-a314-bc3300b3ac29"  >
</g>
<g transform="matrix(7.5 0 0 7.5 540 540)" id="501722b0-dee5-4280-bd43-c48e3884012b"  >
<path style="stroke: rgb(0,0,0); stroke-width: 0; stroke-dasharray: none; stroke-linecap: butt; stroke-dashoffset: 0; stroke-linejoin: miter; stroke-miterlimit: 4; fill: rgb(234,27,34); fill-rule: nonzero; opacity: 1;" vector-effect="non-scaling-stroke"  transform=" translate(-64, -64)" d="M 55.387 66.469 L 63.72 66.469 L 59.313 59.37899999999999 L 51.225 72.198 L 47.544000000000004 72.198 L 57.382000000000005 56.8 C 57.81 56.178 58.522000000000006 55.802 59.313 55.802 C 60.078 55.802 60.791000000000004 56.165 61.205000000000005 56.774 L 71.081 72.19800000000001 L 67.4 72.19800000000001 L 65.664 69.33300000000001 L 57.226 69.33300000000001 L 55.387 66.46900000000001 z M 93.622 69.333 L 93.622 55.958 L 90.499 55.958 L 90.499 70.643 C 90.499 71.045 90.655 71.434 90.95299999999999 71.732 C 91.25099999999999 72.03 91.65299999999999 72.198 92.094 72.198 L 106.338 72.198 L 108.17899999999999 69.333 L 93.62199999999999 69.333 z M 41.945 66.93599999999999 C 44.978 66.93599999999999 47.441 64.487 47.441 61.45399999999999 C 47.441 58.42099999999999 44.979 55.95799999999999 41.945 55.95799999999999 L 28.28 55.95799999999999 L 28.28 72.19899999999998 L 31.403000000000002 72.19899999999998 L 31.403000000000002 58.82199999999998 L 41.738 58.82199999999998 C 43.19 58.82199999999998 44.356 60.00199999999998 44.356 61.45299999999998 C 44.356 62.90399999999998 43.189 64.08399999999997 41.738 64.08399999999997 L 32.932 64.07099999999997 L 42.256 72.19799999999996 L 46.794 72.19799999999996 L 40.519999999999996 66.93499999999996 L 41.94499999999999 66.93499999999996 z M 9.058999999999997 72.198 C 4.575999999999998 72.198 0.9369999999999976 68.56899999999999 0.9369999999999976 64.08399999999999 C 0.9369999999999976 59.59899999999999 4.5749999999999975 55.95699999999999 9.058999999999997 55.95699999999999 L 18.497999999999998 55.95699999999999 C 22.982999999999997 55.95699999999999 26.619 59.59999999999999 26.619 64.08399999999999 C 26.619 68.56799999999998 22.983 72.198 18.497999999999998 72.198 L 9.058999999999997 72.198 z M 18.287999999999997 69.333 C 21.192999999999998 69.333 23.545999999999996 66.987 23.545999999999996 64.084 C 23.545999999999996 61.181000000000004 21.192999999999994 58.821000000000005 18.287999999999997 58.821000000000005 L 9.266999999999996 58.821000000000005 C 6.364999999999996 58.821000000000005 4.010999999999996 61.18000000000001 4.010999999999996 64.084 C 4.010999999999996 66.98700000000001 6.364999999999996 69.333 9.266999999999996 69.333 L 18.287999999999997 69.333 z M 77.602 72.198 C 73.11800000000001 72.198 69.476 68.56899999999999 69.476 64.08399999999999 C 69.476 59.59899999999999 73.118 55.95699999999999 77.602 55.95699999999999 L 88.81400000000001 55.95699999999999 L 86.98500000000001 58.820999999999984 L 77.81000000000002 58.820999999999984 C 74.90600000000002 58.820999999999984 72.54600000000002 61.179999999999986 72.54600000000002 64.08399999999999 C 72.54600000000002 66.987 74.90600000000002 69.33299999999998 77.81000000000002 69.33299999999998 L 89.07300000000002 69.33299999999998 L 87.23300000000002 72.19799999999998 L 77.60200000000002 72.19799999999998 z M 115.799 69.333 C 113.402 69.333 111.36600000000001 67.726 110.744 65.509 L 124.094 65.509 L 125.934 62.645 L 110.744 62.645 C 111.366 60.442 113.402 58.821000000000005 115.799 58.821000000000005 L 124.962 58.821000000000005 L 126.816 55.95700000000001 L 115.59100000000001 55.95700000000001 C 111.10700000000001 55.95700000000001 107.465 59.60000000000001 107.465 64.084 C 107.465 68.568 111.107 72.19800000000001 115.59100000000001 72.19800000000001 L 125.22200000000001 72.19800000000001 L 127.063 69.33300000000001 L 115.799 69.33300000000001" stroke-linecap="round" />
</g>
</svg>