<svg xmlns="http://www.w3.org/2000/svg" width="778.05" height="300.5" viewBox="0 0 778.05 300.5" id="amazon-web-services"><g transform="translate(-.498 -.37)"><path fill="#f90" fill-rule="evenodd" d="M100.69,289.184,54.952,272.77V205.732l45.738,15.584v67.868m8.39,0,45.738-16.411V205.732L109.08,221.316v67.868M59.653,200.718l46.29-13.032,42.924,13.841L105.943,216.1l-46.29-15.382m-13.417-5.192L.5,179.119V112.075l45.738,15.584v67.868m8.39,0,45.741-16.408V112.075L54.626,127.658v67.868M5.2,107.057,51.491,94.028l42.924,13.841L51.491,122.442,5.2,107.06m147.764,88.466-45.741-16.408V112.075l45.741,15.584v67.868m8.39,0,45.741-16.408V112.075l-45.741,15.584v67.868m-49.425-88.469,46.29-13.029,42.921,13.841-42.921,14.573-46.29-15.382m95.489-5.2-45.741-16.4V18.417L207.417,34v67.865m8.39,0,45.738-16.4V18.417L215.8,34v67.865M166.379,13.4,212.673.37l42.921,13.838L212.673,28.784,166.379,13.4m147.767,88.46-45.741-16.4V18.417L314.147,34v67.865m8.387,0,45.741-16.4V18.417L322.534,34v67.865M273.106,13.4,319.4.37,362.32,14.208,319.4,28.781,273.106,13.4"></path><path fill-rule="evenodd" d="M141.194,80.69,125.83,134.067h-6.675L107.191,94.421,96.225,134.067H89.419L73.442,80.69H81.7l11.631,39.777L104.4,80.69h6.092L122.531,120.6,134.486,80.69h6.705Z" transform="translate(149.684 164.82)"></path><path fill-rule="evenodd" stroke="#000" d="M141.194,80.69,125.83,134.067h-6.675L107.191,94.421,96.225,134.067H89.419L73.442,80.69H81.7l11.631,39.777L104.4,80.69h6.092L122.531,120.6,134.486,80.69h6.705Z" transform="translate(149.684 164.82)"></path><path fill-rule="evenodd" d="M136.005,119.14l7.734,1.587a21.767,21.767,0,0,1-8.225,11.332,23.71,23.71,0,0,1-14.406,4.487q-10.919,0-17.671-7.7t-6.754-20.183q0-12.75,7.017-20.6a22.627,22.627,0,0,1,17.622-7.856q10.452,0,16.8,7.233t6.516,21.645H105.9q0,12.109,5.06,16.338a16.462,16.462,0,0,0,10.7,4.227Q131.841,129.648,136.005,119.14Zm-.452-16.243a23.17,23.17,0,0,0-1.477-7.978,13.63,13.63,0,0,0-4.639-5.942,12.721,12.721,0,0,0-7.859-2.454,14.013,14.013,0,0,0-10.465,4.438q-4.3,4.441-4.822,11.933h29.263Z" transform="translate(197.375 163.824)"></path><path fill-rule="evenodd" stroke="#000" d="M136.005,119.14l7.734,1.587a21.767,21.767,0,0,1-8.225,11.332,23.71,23.71,0,0,1-14.406,4.487q-10.919,0-17.671-7.7t-6.754-20.183q0-12.75,7.017-20.6a22.627,22.627,0,0,1,17.622-7.856q10.452,0,16.8,7.233t6.516,21.645H105.9q0,12.109,5.06,16.338a16.462,16.462,0,0,0,10.7,4.227Q131.841,129.648,136.005,119.14Zm-.452-16.243a23.17,23.17,0,0,0-1.477-7.978,13.63,13.63,0,0,0-4.639-5.942,12.721,12.721,0,0,0-7.859-2.454,14.013,14.013,0,0,0-10.465,4.438q-4.3,4.441-4.822,11.933h29.263Z" transform="translate(197.375 163.824)"></path><path fill-rule="evenodd" d="M119.974,146.634h-4V74.566h8.317v27.59q5.7-10.383,15.706-10.38a19.408,19.408,0,0,1,15.361,7.249q6.194,7.247,6.2,21.053,0,11.9-6.092,19.969a18.978,18.978,0,0,1-15.855,8.07q-10.868,0-16.667-10.316Zm4.319-20.928q.581,8.222,5.042,11.933a14.541,14.541,0,0,0,9.422,3.711,11.947,11.947,0,0,0,10.215-5.5q3.882-5.5,3.876-15.071,0-10.305-3.745-16.206a11.714,11.714,0,0,0-10.4-5.9,13.048,13.048,0,0,0-9.422,4.2,17.822,17.822,0,0,0-4.99,10.853v11.985Z" transform="translate(236.965 152.253)"></path><path fill-rule="evenodd" stroke="#000" d="M119.974,146.634h-4V74.566h8.317v27.59q5.7-10.383,15.706-10.38a19.408,19.408,0,0,1,15.361,7.249q6.194,7.247,6.2,21.053,0,11.9-6.092,19.969a18.978,18.978,0,0,1-15.855,8.07q-10.868,0-16.667-10.316Zm4.319-20.928q.581,8.222,5.042,11.933a14.541,14.541,0,0,0,9.422,3.711,11.947,11.947,0,0,0,10.215-5.5q3.882-5.5,3.876-15.071,0-10.305-3.745-16.206a11.714,11.714,0,0,0-10.4-5.9,13.048,13.048,0,0,0-9.422,4.2,17.822,17.822,0,0,0-4.99,10.853v11.985Z" transform="translate(236.965 152.253)"></path><path fill-rule="evenodd" d="M137.853,121.231l7.926-1.639q2.646,10.058,16.707,10.056a15.83,15.83,0,0,0,8.772-2.32,7.344,7.344,0,0,0,3.6-6.534q0-6.272-9.15-7.957L154.462,110.7a20.523,20.523,0,0,1-10.511-4.969,12.843,12.843,0,0,1-3.907-9.779,14.138,14.138,0,0,1,5.332-11.228q5.329-4.519,14.36-4.517,17.369,0,21.434,13.575l-7.606,1.636Q170.292,87.1,160.112,87.1a15.192,15.192,0,0,0-8.314,2.078,6.542,6.542,0,0,0-3.244,5.811q0,5.883,8.292,7.41l10.392,1.914q16.321,2.957,16.316,15.825a14.121,14.121,0,0,1-6.074,11.879q-6.075,4.532-16.17,4.529-18.967,0-23.458-15.315Z" transform="translate(281.857 163.824)"></path><path fill-rule="evenodd" stroke="#000" d="M137.853,121.231l7.926-1.639q2.646,10.058,16.707,10.056a15.83,15.83,0,0,0,8.772-2.32,7.344,7.344,0,0,0,3.6-6.534q0-6.272-9.15-7.957L154.462,110.7a20.523,20.523,0,0,1-10.511-4.969,12.843,12.843,0,0,1-3.907-9.779,14.138,14.138,0,0,1,5.332-11.228q5.329-4.519,14.36-4.517,17.369,0,21.434,13.575l-7.606,1.636Q170.292,87.1,160.112,87.1a15.192,15.192,0,0,0-8.314,2.078,6.542,6.542,0,0,0-3.244,5.811q0,5.883,8.292,7.41l10.392,1.914q16.321,2.957,16.316,15.825a14.121,14.121,0,0,1-6.074,11.879q-6.075,4.532-16.17,4.529-18.967,0-23.458-15.315Z" transform="translate(281.857 163.824)"></path><path fill-rule="evenodd" d="M193.753,119.14l7.734,1.587a21.723,21.723,0,0,1-8.228,11.332,23.691,23.691,0,0,1-14.4,4.487q-10.923,0-17.674-7.7t-6.751-20.183q0-12.75,7.02-20.6a22.62,22.62,0,0,1,17.619-7.856q10.443,0,16.8,7.233t6.513,21.645H163.651q0,12.109,5.06,16.338a16.475,16.475,0,0,0,10.7,4.227Q189.587,129.648,193.753,119.14ZM193.3,102.9a23.171,23.171,0,0,0-1.474-7.978,13.63,13.63,0,0,0-4.639-5.942,12.727,12.727,0,0,0-7.859-2.454,14.025,14.025,0,0,0-10.468,4.438q-4.294,4.441-4.822,11.933H193.3Z" transform="translate(315.882 163.824)"></path><path fill-rule="evenodd" stroke="#000" d="M193.753,119.14l7.734,1.587a21.723,21.723,0,0,1-8.228,11.332,23.691,23.691,0,0,1-14.4,4.487q-10.923,0-17.674-7.7t-6.751-20.183q0-12.75,7.02-20.6a22.62,22.62,0,0,1,17.619-7.856q10.443,0,16.8,7.233t6.513,21.645H163.651q0,12.109,5.06,16.338a16.475,16.475,0,0,0,10.7,4.227Q189.587,129.648,193.753,119.14ZM193.3,102.9a23.171,23.171,0,0,0-1.474-7.978,13.63,13.63,0,0,0-4.639-5.942,12.727,12.727,0,0,0-7.859-2.454,14.025,14.025,0,0,0-10.468,4.438q-4.294,4.441-4.822,11.933H193.3Z" transform="translate(315.882 163.824)"></path><path fill-rule="evenodd" d="M181.394,135.062h-8.317V81.685h7.288V94.128q3.85-8.744,7.731-11.329a14.125,14.125,0,0,1,7.948-2.594c.842,0,1.935.064,3.272.192v7.929h-1.685a14.591,14.591,0,0,0-11.384,5.094q-4.537,5.091-4.853,13.383v28.259Z" transform="translate(354.139 163.824)"></path><path fill-rule="evenodd" stroke="#000" d="M181.394,135.062h-8.317V81.685h7.288V94.128q3.85-8.744,7.731-11.329a14.125,14.125,0,0,1,7.948-2.594c.842,0,1.935.064,3.272.192v7.929h-1.685a14.591,14.591,0,0,0-11.384,5.094q-4.537,5.091-4.853,13.383v28.259Z" transform="translate(354.139 163.824)"></path><path fill-rule="evenodd" d="M229.584,80.69l-18.428,53.377H202.54L183.495,80.69h9.2l14.815,43.385,14.7-43.385h7.374Z" transform="translate(375.517 164.82)"></path><path fill-rule="evenodd" stroke="#000" d="M229.584,80.69l-18.428,53.377H202.54L183.495,80.69h9.2l14.815,43.385,14.7-43.385h7.374Z" transform="translate(375.517 164.82)"></path><path fill-rule="evenodd" d="M200.774,74.566h8.9v9.217h-8.9Zm.388,18.691h8.314v53.377h-8.314Z" transform="translate(410.974 152.253)"></path><path fill-rule="evenodd" stroke="#000" d="M200.774,74.566h8.9v9.217h-8.9Zm.388,18.691h8.314v53.377h-8.314Z" transform="translate(410.974 152.253)"></path><path fill-rule="evenodd" d="M241.875,116.369l7.474,1.318q-1.584,8.849-7.023,13.853a19.28,19.28,0,0,1-13.569,5.005q-11.033,0-16.817-8.149t-5.784-19.89q0-12.168,6.1-20.235t16.6-8.067q8.717,0,13.966,5.216a23.35,23.35,0,0,1,6.522,13.469l-7.477,1.425q-2.11-13.208-12.767-13.215a11.774,11.774,0,0,0-10.548,5.832q-3.695,5.837-3.693,15.126,0,10.246,3.662,15.916a11.622,11.622,0,0,0,10.316,5.674q10.282,0,13.032-13.276Z" transform="translate(422.02 163.824)"></path><path fill-rule="evenodd" stroke="#000" d="M241.875,116.369l7.474,1.318q-1.584,8.849-7.023,13.853a19.28,19.28,0,0,1-13.569,5.005q-11.033,0-16.817-8.149t-5.784-19.89q0-12.168,6.1-20.235t16.6-8.067q8.717,0,13.966,5.216a23.35,23.35,0,0,1,6.522,13.469l-7.477,1.425q-2.11-13.208-12.767-13.215a11.774,11.774,0,0,0-10.548,5.832q-3.695,5.837-3.693,15.126,0,10.246,3.662,15.916a11.622,11.622,0,0,0,10.316,5.674q10.282,0,13.032-13.276Z" transform="translate(422.02 163.824)"></path><path fill-rule="evenodd" d="M262.112,119.14l7.734,1.587a21.739,21.739,0,0,1-8.228,11.332,23.694,23.694,0,0,1-14.4,4.487q-10.923,0-17.674-7.7t-6.751-20.183q0-12.75,7.02-20.6a22.627,22.627,0,0,1,17.622-7.856q10.438,0,16.8,7.233t6.516,21.645H232.007q0,12.109,5.06,16.338a16.477,16.477,0,0,0,10.707,4.227Q257.942,129.648,262.112,119.14Zm-.452-16.243a23.241,23.241,0,0,0-1.477-7.978,13.63,13.63,0,0,0-4.639-5.942,12.721,12.721,0,0,0-7.859-2.454,14.015,14.015,0,0,0-10.469,4.438q-4.294,4.441-4.822,11.933h29.266Z" transform="translate(456.151 163.824)"></path><path fill-rule="evenodd" stroke="#000" d="M262.112,119.14l7.734,1.587a21.739,21.739,0,0,1-8.228,11.332,23.694,23.694,0,0,1-14.4,4.487q-10.923,0-17.674-7.7t-6.751-20.183q0-12.75,7.02-20.6a22.627,22.627,0,0,1,17.622-7.856q10.438,0,16.8,7.233t6.516,21.645H232.007q0,12.109,5.06,16.338a16.477,16.477,0,0,0,10.707,4.227Q257.942,129.648,262.112,119.14Zm-.452-16.243a23.241,23.241,0,0,0-1.477-7.978,13.63,13.63,0,0,0-4.639-5.942,12.721,12.721,0,0,0-7.859-2.454,14.015,14.015,0,0,0-10.469,4.438q-4.294,4.441-4.822,11.933h29.266Z" transform="translate(456.151 163.824)"></path><path fill-rule="evenodd" d="M240.042,121.231l7.935-1.639q2.637,10.058,16.7,10.056a15.833,15.833,0,0,0,8.775-2.32,7.351,7.351,0,0,0,3.6-6.534q0-6.272-9.15-7.957L256.654,110.7a20.523,20.523,0,0,1-10.511-4.969,12.843,12.843,0,0,1-3.907-9.779,14.129,14.129,0,0,1,5.332-11.228q5.329-4.519,14.36-4.517,17.369,0,21.434,13.575l-7.606,1.636Q272.484,87.1,262.3,87.1a15.174,15.174,0,0,0-8.311,2.078,6.532,6.532,0,0,0-3.247,5.811q0,5.883,8.3,7.41l10.389,1.914q16.316,2.957,16.319,15.825a14.116,14.116,0,0,1-6.077,11.879q-6.075,4.532-16.17,4.529-18.967,0-23.461-15.315Z" transform="translate(491.553 163.824)"></path><path fill-rule="evenodd" stroke="#000" d="M240.042,121.231l7.935-1.639q2.637,10.058,16.7,10.056a15.833,15.833,0,0,0,8.775-2.32,7.351,7.351,0,0,0,3.6-6.534q0-6.272-9.15-7.957L256.654,110.7a20.523,20.523,0,0,1-10.511-4.969,12.843,12.843,0,0,1-3.907-9.779,14.129,14.129,0,0,1,5.332-11.228q5.329-4.519,14.36-4.517,17.369,0,21.434,13.575l-7.606,1.636Q272.484,87.1,262.3,87.1a15.174,15.174,0,0,0-8.311,2.078,6.532,6.532,0,0,0-3.247,5.811q0,5.883,8.3,7.41l10.389,1.914q16.316,2.957,16.319,15.825a14.116,14.116,0,0,1-6.077,11.879q-6.075,4.532-16.17,4.529-18.967,0-23.461-15.315Z" transform="translate(491.553 163.824)"></path><path fill-rule="evenodd" d="M395.487,55.814V43a3.168,3.168,0,0,1,3.25-3.25l57.464-.006a3.2,3.2,0,0,1,3.318,3.235l0,11c-.015,1.843-1.569,4.251-4.328,8.07l-29.763,42.5c11.048-.259,22.738,1.395,32.776,7.038a5.853,5.853,0,0,1,3.046,5.005v13.679c0,1.886-2.06,4.065-4.23,2.93-17.687-9.263-41.16-10.279-60.714.113-2,1.068-4.09-1.083-4.09-2.97v-13c0-2.081.037-5.64,2.136-8.814l34.488-49.474-30.029,0a3.2,3.2,0,0,1-3.318-3.229M189.841,135.89H172.356a3.29,3.29,0,0,1-3.125-2.951l.012-89.73a3.3,3.3,0,0,1,3.372-3.229l16.28,0a3.288,3.288,0,0,1,3.18,3.012V54.706h.33c4.242-11.329,12.239-16.618,23.006-16.618,10.935,0,17.787,5.289,22.686,16.618,4.242-11.329,13.868-16.618,24.151-16.618,7.343,0,15.34,3.022,20.235,9.818,5.549,7.551,4.407,18.5,4.407,28.134l-.012,56.621a3.3,3.3,0,0,1-3.372,3.232H266.044a3.285,3.285,0,0,1-3.141-3.223V85.1c0-3.775.324-13.215-.494-16.8-1.306-6.043-5.219-7.743-10.279-7.743a11.591,11.591,0,0,0-10.444,7.365c-1.8,4.532-1.633,12.083-1.633,17.183v47.557a3.3,3.3,0,0,1-3.369,3.232H219.22a3.282,3.282,0,0,1-3.137-3.223L216.064,85.1c0-10,1.633-24.734-10.768-24.734-12.568,0-12.077,14.351-12.077,24.734l-.009,47.56a3.3,3.3,0,0,1-3.369,3.232M501.732,38.088c25.741,0,39.664,22.28,39.664,50.6,0,27.377-15.379,49.092-39.664,49.092-25.256,0-39.017-22.28-39.017-50.035,0-27.947,13.926-49.657,39.017-49.657Zm.162,20.626c-12.791,0-13.6,17.558-13.6,28.509s-.162,32.056,13.438,32.056c13.438,0,14.085-16.573,14.085-28.088,0-7.554-.32-16.618-2.588-23.791C511.281,61.167,507.4,58.713,501.893,58.713Zm76.756,77.177H561.234a3.28,3.28,0,0,1-3.138-3.22l-.03-89.76a3.314,3.314,0,0,1,3.36-2.93l16.216,0a3.321,3.321,0,0,1,3.107,2.512V56.214h.33c4.9-12.272,11.747-18.126,23.824-18.126,7.832,0,15.5,2.832,20.4,10.575,4.569,7.172,4.569,19.258,4.569,27.944v56.457a3.316,3.316,0,0,1-3.348,2.829H609a3.3,3.3,0,0,1-3.113-2.829V84.347c0-9.818,1.144-24.169-10.932-24.169-4.248,0-8.161,2.832-10.117,7.175-2.448,5.475-2.777,10.951-2.777,16.994v48.314a3.346,3.346,0,0,1-3.406,3.232M351.66,93.043c0,6.815.165,12.489-3.266,18.544-2.784,4.923-7.2,7.948-12.107,7.948-6.7,0-10.627-5.109-10.627-12.678,0-14.888,13.356-17.6,26-17.6v3.785Zm17.629,42.625a3.625,3.625,0,0,1-4.133.409c-5.8-4.828-6.846-7.059-10.02-11.653-9.6,9.779-16.393,12.709-28.823,12.709-14.717,0-26.165-9.083-26.165-27.249,0-14.192,7.685-23.843,18.642-28.573,9.486-4.163,22.735-4.92,32.87-6.055V72.985c0-4.163.33-9.083-2.124-12.678-2.124-3.217-6.214-4.541-9.812-4.541-6.669,0-12.6,3.418-14.052,10.5-.3,1.575-1.453,3.131-3.037,3.211L305.69,67.644a3.078,3.078,0,0,1-2.609-3.653c3.894-20.559,22.46-26.769,39.1-26.769,8.5,0,19.625,2.271,26.33,8.7,8.5,7.948,7.685,18.544,7.685,30.087v27.236c0,8.192,3.406,11.787,6.6,16.2,1.114,1.587,1.367,3.479-.061,4.642-3.571,2.991-9.913,8.506-13.4,11.613l-.04-.04ZM124.466,93.043c0,6.815.165,12.489-3.269,18.544-2.78,4.923-7.2,7.948-12.1,7.948-6.705,0-10.627-5.109-10.627-12.678,0-14.888,13.356-17.6,26-17.6v3.785Zm17.629,42.625a3.626,3.626,0,0,1-4.132.409c-5.808-4.828-6.849-7.059-10.023-11.653-9.6,9.779-16.392,12.709-28.82,12.709-14.72,0-26.168-9.083-26.168-27.249,0-14.192,7.685-23.843,18.645-28.573,9.486-4.163,22.735-4.92,32.87-6.055V72.985c0-4.163.327-9.083-2.124-12.678-2.127-3.217-6.217-4.541-9.812-4.541-6.669,0-12.6,3.418-14.055,10.5-.3,1.575-1.45,3.131-3.037,3.211L78.5,67.644a3.078,3.078,0,0,1-2.61-3.653c3.894-20.559,22.457-26.769,39.1-26.769,8.5,0,19.625,2.271,26.33,8.7C149.817,53.873,149,64.47,149,76.012v27.236c0,8.192,3.4,11.787,6.6,16.2,1.117,1.587,1.367,3.479-.055,4.642-3.571,2.991-9.919,8.506-13.408,11.613l-.04-.04Z" transform="translate(148.676 75.62)"></path></g></svg>